<?xml version="1.0" standalone="no"?>
<!DOCTYPE svg PUBLIC "-//W3C//DTD SVG 1.1//EN" "http://www.w3.org/Graphics/SVG/1.1/DTD/svg11.dtd" >
<svg xmlns="http://www.w3.org/2000/svg">
<metadata>Generated by IcoMoon</metadata>
<defs>
<font id="icomoon" horiz-adv-x="1024">
<font-face units-per-em="1024" ascent="960" descent="-64" />
<missing-glyph horiz-adv-x="1024" />
<glyph unicode="&#x20;" horiz-adv-x="512" d="" />
<glyph unicode="&#xe900;" glyph-name="academic-cap" d="M499.191 840.303c8.166 3.569 17.455 3.569 25.621 0 158.673-69.326 309.052-154.073 449.246-252.342 10.146-7.112 15.275-19.441 13.167-31.65s-11.076-22.104-23.019-25.401c-29.222-8.068-58.193-16.755-86.903-26.014-116.527-37.581-228.693-84.864-335.556-140.902l-0.141-0.073c-4.847-2.543-9.681-5.103-14.502-7.68-9.425-5.035-20.74-5.035-30.161 0-4.868 2.603-9.749 5.188-14.643 7.753-52.838 27.708-106.979 53.278-162.3 76.591v9.545c0 5.606 2.877 10.577 7.327 13.274 64.218 38.908 130.461 74.804 198.527 107.5 15.932 7.652 22.643 26.769 14.993 42.7-7.654 15.931-26.773 22.642-42.701 14.99-69.943-33.595-138.003-70.479-203.981-110.448-19.344-11.721-32.349-30.903-36.626-52.39-36.477 14.033-73.433 27.102-110.839 39.164-28.707 9.259-57.679 17.929-86.901 25.993-11.943 3.297-20.91 13.192-23.019 25.401s3.020 24.538 13.166 31.65c140.196 98.269 290.575 183.016 449.245 252.342zM557.265 299.797c104.055 55.599 213.385 102.601 327.036 140.066 5.73-60.365 9.387-121.331 10.901-182.822 0.324-13.193-7.484-25.233-19.661-30.319-121.651-50.786-237.359-112.981-345.796-185.242-10.743-7.164-24.742-7.164-35.49 0-108.434 72.26-224.144 134.455-345.792 185.242-12.179 5.086-19.987 17.126-19.662 30.319 1.515 61.495 5.172 122.466 10.901 182.835 39.296-12.954 78.075-27.046 116.298-42.24v-54.204c-19.13-11.068-32-31.748-32-55.437 0-21.133 10.243-39.876 26.036-51.529-3.82-16.243-9.472-32.132-16.958-47.351 19.315-9.118 38.465-18.526 57.443-28.224 10.809 21.986 18.646 45.060 23.511 68.621 22.372 9.971 37.967 32.405 37.967 58.483 0 23.689-12.87 44.369-32 55.437v27.511c49.98-21.837 98.938-45.585 146.782-71.147 28.271-15.108 62.212-15.108 90.483 0zM190.388 129.604c17.883 17.882 32.119 38.025 42.69 59.511 19.315-9.118 38.465-18.526 57.443-28.224-13.591-27.639-31.892-53.555-54.879-76.544-12.497-12.497-32.758-12.497-45.255 0s-12.497 32.759 0 45.257z" />
<glyph unicode="&#xe901;" glyph-name="archive-box" d="M144 832c-44.183 0-80-35.817-80-80v-32c0-44.183 35.817-80 80-80h736c44.181 0 80 35.817 80 80v32c0 44.183-35.819 80-80 80h-736zM131.703 576l23.031-391.518c3.98-67.657 60.006-120.482 127.779-120.482h458.961c67.772 0 123.802 52.826 127.778 120.482l23.031 391.518h-760.581zM394.656 416c0 17.673 14.327 32 32 32h170.668c17.673 0 32-14.327 32-32s-14.327-32-32-32h-170.668c-17.673 0-32 14.327-32 32z" />
<glyph unicode="&#xe902;" glyph-name="crown-svgrepo-com" d="M213.333 149.333c0 23.565 19.103 42.667 42.667 42.667h512c23.565 0 42.667-19.102 42.667-42.667s-19.102-42.667-42.667-42.667h-512c-23.564 0-42.667 19.102-42.667 42.667zM421.49 759.163c49.985 49.987 131.031 49.987 181.019 0l109.504-109.503c12.988-12.986 32.823-16.205 49.25-7.992l30.323 15.161c65.489 32.745 137.873-30.036 114.722-99.497l-78.383-235.142c-17.421-52.267-66.334-87.522-121.429-87.522h-388.992c-55.095 0-104.009 35.255-121.431 87.522l-78.38 235.142c-23.154 69.461 49.233 132.242 114.722 99.497l30.321-15.161c16.426-8.213 36.265-4.994 49.251 7.992l109.503 109.503z" />
<glyph unicode="&#xe903;" glyph-name="arrow-left" d="M470.626 790.627c12.497-12.497 12.497-32.758 0-45.255l-265.371-265.373h690.745c17.673 0 32-14.327 32-32s-14.327-32-32-32h-690.745l265.371-265.374c12.497-12.497 12.497-32.755 0-45.252s-32.755-12.497-45.254 0l-320 320c-12.497 12.497-12.497 32.755 0 45.252l320 320.001c12.498 12.497 32.756 12.497 45.254 0z" />
<glyph unicode="&#xe904;" glyph-name="leaf-ui-2-svgrepo-com" d="M140.459 76.373c-7.68 7.714-12.428 18.353-12.428 30.101s4.748 22.387 12.43 30.103l120.702 120.659c-20.755 42.921-32.884 93.343-32.884 146.598 0 101.481 44.043 192.674 114.058 255.509l0.32 0.282c215.211 215.040 549.077 168.107 549.077 168.107 2.72-24.712 4.272-53.368 4.272-82.387 0-45.155-3.757-89.433-10.976-132.538l0.645 4.664h-204.117l160.043-160.043c-28.648-69.553-68.507-128.972-117.933-178.904l0.045 0.046c-63.124-70.338-154.326-114.384-255.816-114.384-53.229 0-103.628 12.116-148.589 33.74l2.058-0.892-120.832-120.661c-7.708-7.642-18.321-12.365-30.037-12.365s-22.33 4.722-30.040 12.368l0.003-0.003z" />
<glyph unicode="&#xe905;" glyph-name="arrow-path" d="M202.887 530.82c45.741 170.709 221.209 272.016 391.92 226.275 56.358-15.102 105.075-44.294 143.471-82.76l81.199-81.198h-135.838c-17.677 0-32-14.327-32-32s14.323-32.002 32-32.002h213.018c8.486 0 16.627 3.375 22.626 9.376 6.003 6.002 9.374 14.143 9.374 22.63v213.013c0 17.673-14.327 32-32 32-17.677 0-32-14.327-32-32v-135.687l-81.079 81.079c-46.131 46.211-104.691 81.276-172.207 99.367-204.852 54.889-415.413-66.678-470.303-271.529-4.574-17.072 5.556-34.617 22.627-39.191s34.618 5.555 39.192 22.626zM860.271 387.806c-17.071 4.574-34.615-5.559-39.189-22.63-45.743-170.709-221.21-272.013-391.919-226.274-56.363 15.104-105.079 44.297-143.473 82.761l-81.147 81.199h135.8c17.673 0 32 14.327 32 32s-14.327 32-32 32h-213.019c-17.673 0-32-14.327-32-32v-213.018c0-17.673 14.327-32 32-32s32 14.327 32 32v135.727l81.070-81.122c46.131-46.217 104.684-81.271 172.204-99.366 204.849-54.886 415.414 66.679 470.3 271.531 4.574 17.071-5.555 34.615-22.626 39.194z" />
<glyph unicode="&#xe906;" glyph-name="arrow-right" d="M553.374 790.627c12.497 12.497 32.755 12.497 45.252 0l320-320.001c6.003-5.999 9.374-14.14 9.374-22.626s-3.371-16.627-9.374-22.626l-320-320c-12.497-12.497-32.755-12.497-45.252 0s-12.497 32.755 0 45.252l265.37 265.374h-690.743c-17.673 0-32 14.327-32 32s14.327 32 32 32h690.743l-265.37 265.373c-12.497 12.497-12.497 32.758 0 45.255z" />
<glyph unicode="&#xe907;" glyph-name="sun-fog-svgrepo-com" d="M788.51 437.333c11.947 0 22.187 10.24 21.333 22.187-11.52 154.88-140.373 276.48-297.813 276.48s-286.293-121.6-297.813-276.48c-0.853-11.947 9.387-22.187 21.333-22.187h552.96zM938.667 405.333h-3.413c-23.467 0-42.667 19.2-42.667 42.667s19.2 42.667 42.667 42.667c23.467 0 44.373-19.2 44.373-42.667s-17.493-42.667-40.96-42.667zM88.747 405.333h-3.413c-23.467 0-42.667 19.2-42.667 42.667s19.2 42.667 42.667 42.667c23.467 0 44.373-19.2 44.373-42.667s-17.493-42.667-40.96-42.667zM811.093 704.427c-11.093 0-21.76 4.267-30.293 12.373-16.64 16.64-16.64 43.52 0 60.16l5.547 5.547c16.64 16.64 43.52 16.64 60.16 0s16.64-43.52 0-60.16l-5.547-5.547c-8.107-8.107-18.773-12.373-29.867-12.373zM212.907 704.427c-11.093 0-21.76 4.267-30.293 12.373l-5.547 5.973c-16.64 16.64-16.64 43.52 0 60.16s43.52 16.64 60.16 0l5.547-5.547c16.64-16.64 16.64-43.52 0-60.16-8.107-8.533-19.2-12.8-29.867-12.8zM512 830.293c-23.467 0-42.667 17.493-42.667 40.96v3.413c0 23.467 19.2 42.667 42.667 42.667s42.667-19.2 42.667-42.667c0-23.467-19.2-44.373-42.667-44.373zM853.333 288h-682.667c-17.493 0-32 14.507-32 32s14.507 32 32 32h682.667c17.493 0 32-14.507 32-32s-14.507-32-32-32zM768 160h-512c-17.493 0-32 14.507-32 32s14.507 32 32 32h512c17.493 0 32-14.507 32-32s-14.507-32-32-32zM640 32h-256c-17.493 0-32 14.507-32 32s14.507 32 32 32h256c17.493 0 32-14.507 32-32s-14.507-32-32-32z" />
<glyph unicode="&#xe908;" glyph-name="arrow-down" d="M512 864c17.673 0 32-14.327 32-32v-690.743l265.374 265.37c12.497 12.497 32.755 12.497 45.252 0s12.497-32.755 0-45.252l-320-320c-12.497-12.497-32.755-12.497-45.252 0l-320.001 320c-12.497 12.497-12.497 32.755 0 45.252s32.758 12.497 45.255 0l265.373-265.37v690.743c0 17.673 14.327 32 32 32z" />
<glyph unicode="&#xe909;" glyph-name="arrow-up" d="M489.374 854.627c12.497 12.497 32.755 12.497 45.252 0l320-320c12.497-12.498 12.497-32.756 0-45.254s-32.755-12.497-45.252 0l-265.374 265.371v-690.745c0-17.673-14.327-32-32-32s-32 14.327-32 32v690.745l-265.373-265.371c-12.497-12.497-32.758-12.497-45.255 0s-12.497 32.755 0 45.254l320.001 320z" />
<glyph unicode="&#xe90a;" glyph-name="arrow-up-tray" d="M489.374 854.627c12.497 12.497 32.755 12.497 45.252 0l192-192c12.497-12.497 12.497-32.758 0-45.255s-32.755-12.497-45.252 0l-137.374 137.373v-498.745c0-17.673-14.327-32-32-32s-32 14.327-32 32v498.745l-137.373-137.373c-12.497-12.497-32.758-12.497-45.255 0s-12.497 32.758 0 45.255l192.001 192zM128 288c17.673 0 32-14.327 32-32v-96c0-35.345 28.654-64 64-64h576c35.345 0 64 28.655 64 64v96c0 17.673 14.327 32 32 32s32-14.327 32-32v-96c0-70.694-57.306-128-128-128h-576c-70.692 0-128 57.306-128 128v96c0 17.673 14.327 32 32 32z" />
<glyph unicode="&#xe90b;" glyph-name="arrow-uturn-left" d="M406.627 854.627c12.497-12.497 12.497-32.758 0-45.255l-201.373-201.373h434.745c159.057 0 288-128.943 288-288s-128.943-288-288-288h-128c-17.673 0-32 14.327-32 32s14.327 32 32 32h128c123.712 0 224 100.288 224 224s-100.288 224-224 224h-434.745l201.373-201.374c12.497-12.497 12.497-32.755 0-45.252s-32.758-12.497-45.255 0l-256 255.999c-12.497 12.497-12.497 32.758 0 45.255l256 256c12.497 12.497 32.758 12.497 45.255 0z" />
<glyph unicode="&#xe90c;" glyph-name="arrow-uturn-right" d="M617.374 854.627c12.497 12.497 32.755 12.497 45.252 0l256-256c12.497-12.497 12.497-32.758 0-45.255l-256-255.999c-12.497-12.497-32.755-12.497-45.252 0s-12.497 32.755 0 45.252l201.37 201.374h-434.743c-123.712 0-224-100.288-224-224s100.288-224 224-224h128c17.673 0 32-14.327 32-32s-14.327-32-32-32h-128c-159.058 0-288 128.943-288 288s128.942 288 288 288h434.743l-201.37 201.373c-12.497 12.497-12.497 32.758 0 45.255z" />
<glyph unicode="&#xe90d;" glyph-name="backward" d="M392.309 173.265c53.332-30.477 119.691 8.034 119.691 69.457v99.861l296.307-169.318c53.333-30.477 119.693 8.034 119.693 69.457v346.576c0 61.426-66.359 99.935-119.693 69.46l-296.307-169.32v99.86c0 61.426-66.359 99.935-119.691 69.46l-303.253-173.288c-53.745-30.711-53.745-108.207 0-138.918l303.253-173.286z" />
<glyph unicode="&#xe90e;" glyph-name="bars-3" d="M128 672c0 17.673 14.327 32 32 32h704c17.673 0 32-14.327 32-32s-14.327-32-32-32h-704c-17.673 0-32 14.327-32 32zM128 448c0 17.673 14.327 32 32 32h704c17.673 0 32-14.327 32-32s-14.327-32-32-32h-704c-17.673 0-32 14.327-32 32zM128 224c0 17.673 14.327 32 32 32h704c17.673 0 32-14.327 32-32s-14.327-32-32-32h-704c-17.673 0-32 14.327-32 32z" />
<glyph unicode="&#xe90f;" glyph-name="bell" d="M224 576.009c0.005 159.054 128.945 287.991 288 287.991 159.057 0 288-128.942 288-288l-0.009-2.099v-29.901c0-90.586 34.176-173.116 90.394-235.516 7.104-7.885 9.835-18.778 7.292-29.086-2.543-10.304-10.031-18.675-19.985-22.353-65.877-24.32-134.844-42.257-206.135-53.065 0.294-3.959 0.444-7.953 0.444-11.981 0-88.367-71.633-160-160-160-88.365 0-160 71.633-160 160 0 4.028 0.149 8.021 0.443 11.981-71.299 10.807-140.268 28.745-206.15 53.065-9.957 3.678-17.443 12.049-19.986 22.353-2.543 10.308 0.189 21.201 7.293 29.086 56.215 62.4 90.391 144.93 90.391 235.516l0.009 32.009zM416.094 196.297c-0.062-1.421-0.094-2.854-0.094-4.297 0-53.018 42.982-96 96-96 53.022 0 96 42.982 96 96 0 1.442-0.030 2.876-0.094 4.301-31.599-2.846-63.59-4.301-95.915-4.301-32.316 0-64.303 1.451-95.897 4.297z" />
<glyph unicode="&#xe910;" glyph-name="bolt" d="M623.582 891.949c12.851-7.165 19.162-22.173 15.292-36.369l-84.979-311.581h310.106c12.74 0 24.269-7.56 29.346-19.246 5.082-11.686 2.743-25.271-5.952-34.59l-448-480c-10.039-10.756-26.124-13.278-38.977-6.114s-19.162 22.174-15.29 36.369l84.975 311.582h-310.102c-12.742 0-24.271 7.561-29.349 19.247s-2.74 25.271 5.955 34.586l448 480c10.039 10.758 26.125 13.281 38.976 6.116z" />
<glyph unicode="&#xe911;" glyph-name="bolt-slash" d="M887.394 490.163l-136.038-145.754-347.627 347.626 180.877 193.798c10.039 10.758 26.125 13.281 38.976 6.116 12.855-7.165 19.162-22.173 15.292-36.369l-84.975-311.581h310.101c12.745 0 24.273-7.56 29.35-19.246s2.739-25.271-5.956-34.59zM136.607 405.833l136.039 145.757 347.625-347.626-180.877-193.801c-10.039-10.756-26.123-13.278-38.976-6.114s-19.162 22.174-15.29 36.369l84.977 311.582h-310.105c-12.742 0-24.271 7.561-29.349 19.247s-2.74 25.271 5.955 34.586zM150.627 854.627c-12.497 12.497-32.758 12.497-45.255 0s-12.497-32.758 0-45.255l768.001-767.999c12.497-12.497 32.755-12.497 45.252 0s12.497 32.755 0 45.252l-767.999 768.001z" />
<glyph unicode="&#xe912;" glyph-name="cake" d="M640 883.875l-33.941-33.942c-18.743-18.745-18.743-49.137 0-67.882s49.139-18.745 67.883 0c18.743 18.745 18.743 49.137 0 67.882l-33.941 33.942zM512 883.875l-33.941-33.942c-18.743-18.745-18.743-49.137 0-67.882s49.139-18.745 67.883 0c18.743 18.745 18.743 49.137 0 67.882l-33.941 33.942zM384 883.875l-33.941-33.942c-18.745-18.745-18.745-49.137 0-67.882s49.137-18.745 67.883 0c18.743 18.745 18.743 49.137 0 67.882l-33.942 33.942zM416 638c21.261 0.884 42.594 1.475 64 1.771v32.221c0 17.673 14.327 32 32 32s32-14.327 32-32v-32.221c21.406-0.296 42.739-0.887 64-1.771v33.992c0 17.673 14.327 32 32 32s32-14.327 32-32v-37.548c4.369-0.304 8.734-0.62 13.094-0.949 66.142-4.983 114.906-60.887 114.906-125.668v-43.46c-94.579 10.325-190.673 15.625-288 15.625-97.329 0-193.42-5.299-288-15.625v43.46c0 64.781 48.766 120.685 114.907 125.668 4.361 0.329 8.725 0.645 13.093 0.949v37.548c0 17.673 14.327 32 32 32s32-14.327 32-32v-33.992zM512 415.991c-105.452 0-209.091-7.851-310.359-23.002-62.039-9.284-105.641-63.253-105.641-124.442v-16.397c37.057 6.886 75.82 1.707 110.311-15.539 31.28-15.637 68.098-15.637 99.378 0 49.298 24.649 107.324 24.649 156.621 0 31.279-15.637 68.1-15.637 99.379 0 49.297 24.649 107.324 24.649 156.621 0 31.279-15.637 68.1-15.637 99.379 0 34.492 17.246 73.254 22.426 110.31 15.539v16.397c0 61.188-43.601 115.157-105.643 124.442-101.265 15.151-204.907 23.002-310.357 23.002zM928 186.394c-26.901 8.090-56.141 5.751-81.69-7.023-49.297-24.649-107.324-24.649-156.621 0-31.279 15.642-68.1 15.642-99.379 0-49.297-24.649-107.324-24.649-156.621 0-31.281 15.642-68.099 15.642-99.379 0-49.298-24.649-107.324-24.649-156.622 0-25.547 12.774-54.788 15.113-81.689 7.023v-106.402c0-44.181 35.817-80 80-80h672c44.181 0 80 35.819 80 80v106.402z" />
<glyph unicode="&#xe913;" glyph-name="calendar-days" d="M544 416c0-17.673-14.327-32-32-32s-32 14.327-32 32c0 17.673 14.327 32 32 32s32-14.327 32-32zM320 288c17.673 0 32 14.327 32 32s-14.327 32-32 32c-17.673 0-32-14.327-32-32s14.327-32 32-32zM352 224c0-17.673-14.327-32-32-32s-32 14.327-32 32c0 17.673 14.327 32 32 32s32-14.327 32-32zM416 288c17.673 0 32 14.327 32 32s-14.327 32-32 32c-17.673 0-32-14.327-32-32s14.327-32 32-32zM448 224c0-17.673-14.327-32-32-32s-32 14.327-32 32c0 17.673 14.327 32 32 32s32-14.327 32-32zM512 288c17.673 0 32 14.327 32 32s-14.327 32-32 32c-17.673 0-32-14.327-32-32s14.327-32 32-32zM544 224c0-17.673-14.327-32-32-32s-32 14.327-32 32c0 17.673 14.327 32 32 32s32-14.327 32-32zM608 288c17.673 0 32 14.327 32 32s-14.327 32-32 32c-17.673 0-32-14.327-32-32s14.327-32 32-32zM640 224c0-17.673-14.327-32-32-32s-32 14.327-32 32c0 17.673 14.327 32 32 32s32-14.327 32-32zM704 288c17.673 0 32 14.327 32 32s-14.327 32-32 32c-17.673 0-32-14.327-32-32s14.327-32 32-32zM640 416c0-17.673-14.327-32-32-32s-32 14.327-32 32c0 17.673 14.327 32 32 32s32-14.327 32-32zM704 384c17.673 0 32 14.327 32 32s-14.327 32-32 32c-17.673 0-32-14.327-32-32s14.327-32 32-32zM288 864c17.673 0 32-14.327 32-32v-64h384v64c0 17.673 14.327 32 32 32s32-14.327 32-32v-64h32c70.694 0 128-57.308 128-128v-480c0-70.694-57.306-128-128-128h-576c-70.692 0-128 57.306-128 128v480c0 70.692 57.308 128 128 128h32v64c0 17.673 14.327 32 32 32zM864 480c0 35.345-28.655 64-64 64h-576c-35.346 0-64-28.655-64-64v-320c0-35.345 28.654-64 64-64h576c35.345 0 64 28.655 64 64v320z" />
<glyph unicode="&#xe914;" glyph-name="chat-bubble-left" d="M206.863 841.771c99.612 14.646 201.505 22.229 305.149 22.229 103.633 0 205.517-7.582 305.122-22.225 84.407-12.41 142.865-86.338 142.865-169.372v-256.808c0-83.034-58.458-156.958-142.865-169.37-82.743-12.164-167.061-19.456-252.646-21.577-4.42-0.111-8.465-1.877-11.366-4.779l-178.495-178.496c-9.152-9.152-22.916-11.891-34.873-6.938s-19.754 16.623-19.754 29.564v168.747c-38.016 3.482-75.737 7.983-113.137 13.483-84.408 12.412-142.863 86.34-142.863 169.374v256.796c0 83.033 58.455 156.96 142.863 169.371z" />
<glyph unicode="&#xe915;" glyph-name="chevron-double-left" d="M566.626 790.627c12.497-12.497 12.497-32.758 0-45.255l-297.371-297.373 297.371-297.374c12.497-12.497 12.497-32.755 0-45.252s-32.755-12.497-45.252 0l-320.001 320c-12.497 12.497-12.497 32.755 0 45.252l320.001 320.001c12.497 12.497 32.755 12.497 45.252 0zM822.626 790.627c12.497-12.497 12.497-32.758 0-45.255l-297.37-297.373 297.37-297.374c12.497-12.497 12.497-32.755 0-45.252s-32.755-12.497-45.252 0l-320 320c-12.497 12.497-12.497 32.755 0 45.252l320 320.001c12.497 12.497 32.755 12.497 45.252 0z" />
<glyph unicode="&#xe916;" glyph-name="chevron-double-right" d="M201.373 790.627c12.497 12.497 32.758 12.497 45.255 0l319.999-320.001c12.497-12.497 12.497-32.755 0-45.252l-319.999-320c-12.497-12.497-32.758-12.497-45.255 0s-12.497 32.755 0 45.252l297.371 297.374-297.371 297.373c-12.497 12.497-12.497 32.758 0 45.255zM457.374 790.627c12.497 12.497 32.755 12.497 45.252 0l320-320.001c12.497-12.497 12.497-32.755 0-45.252l-320-320c-12.497-12.497-32.755-12.497-45.252 0s-12.497 32.755 0 45.252l297.37 297.374-297.37 297.373c-12.497 12.497-12.497 32.758 0 45.255z" />
<glyph unicode="&#xe917;" glyph-name="chevron-left" d="M329.373 425.374c-12.497 12.497-12.497 32.755 0 45.252l320.001 320.001c12.497 12.497 32.755 12.497 45.252 0s12.497-32.758 0-45.255l-297.371-297.373 297.371-297.374c12.497-12.497 12.497-32.755 0-45.252s-32.755-12.497-45.252 0l-320.001 320z" />
<glyph unicode="&#xe918;" glyph-name="chevron-right" d="M694.626 470.626c12.497-12.497 12.497-32.755 0-45.252l-319.999-320c-12.497-12.497-32.758-12.497-45.255 0s-12.497 32.755 0 45.252l297.371 297.374-297.371 297.373c-12.497 12.497-12.497 32.758 0 45.255s32.758 12.497 45.255 0l319.999-320.001z" />
<glyph unicode="&#xe919;" glyph-name="clock" d="M512 864c229.751 0 416-186.249 416-416s-186.249-416-416-416c-229.751 0-416 186.249-416 416s186.249 416 416 416zM544 704c0 17.673-14.327 32-32 32s-32-14.327-32-32v-256c0-17.673 14.327-32 32-32h192c17.673 0 32 14.327 32 32s-14.327 32-32 32h-160v224z" />
<glyph unicode="&#xe91a;" glyph-name="cloud" d="M192 544c0 141.385 114.615 256 256 256 107.861 0 200.077-66.68 237.794-161.027 5.982 0.679 12.058 1.027 18.206 1.027 88.367 0 160-71.634 160-160 0-8.358-0.644-16.58-1.886-24.619 58.394-32.9 97.886-95.501 97.886-167.381 0-106.039-85.961-192-192-192h-480c-123.712 0-224 100.288-224 224 0 89.737 52.748 167.083 128.864 202.842-0.572 6.985-0.864 14.039-0.864 21.158z" />
<glyph unicode="&#xe91b;" glyph-name="cog-6-tooth" d="M472.657 864h78.677c39.104 0 72.482-28.273 78.908-66.848l7.625-45.738c0.862-5.159 4.877-11.139 12.655-14.88 14.677-7.058 28.727-15.2 42.048-24.32 7.104-4.863 14.285-5.358 19.187-3.522l43.494 16.295c36.625 13.719 77.798-1.047 97.348-34.915l39.339-68.135c19.554-33.868 11.759-76.908-18.436-101.763l-35.861-29.525c-4.041-3.324-7.202-9.779-6.558-18.351 0.606-8.026 0.913-16.128 0.913-24.299 0-8.166-0.307-16.265-0.909-24.29-0.644-8.572 2.517-15.027 6.554-18.351l35.861-29.521c30.195-24.858 37.99-67.895 18.436-101.764l-39.339-68.134c-19.55-33.869-60.723-48.636-97.348-34.918l-43.482 16.294c-4.902 1.835-12.087 1.34-19.187-3.524-13.325-9.122-27.379-17.267-42.061-24.324-7.778-3.742-11.793-9.724-12.655-14.882l-7.625-45.734c-6.426-38.579-39.804-66.85-78.908-66.85h-78.677c-39.108 0-72.483 28.271-78.912 66.85l-7.623 45.734c-0.86 5.158-4.878 11.14-12.656 14.882-14.676 7.057-28.727 15.198-42.048 24.32-7.103 4.86-14.285 5.355-19.187 3.52l-43.494-16.294c-36.622-13.722-77.795 1.045-97.348 34.914l-39.338 68.134c-19.553 33.869-11.756 76.911 18.437 101.764l35.863 29.525c4.038 3.324 7.2 9.779 6.555 18.351-0.603 8.026-0.91 16.128-0.91 24.299 0 8.166 0.306 16.265 0.909 24.29 0.644 8.572-2.517 15.027-6.555 18.351l-35.862 29.521c-30.193 24.857-37.99 67.897-18.437 101.765l39.338 68.135c19.553 33.868 60.726 48.635 97.348 34.915l43.485-16.291c4.902-1.837 12.084-1.341 19.188 3.522 13.324 9.122 27.377 17.266 42.057 24.326 7.779 3.741 11.796 9.721 12.656 14.88l7.623 45.738c6.429 38.575 39.803 66.848 78.912 66.848zM512 288c88.367 0 160 71.633 160 160s-71.633 160-160 160c-88.366 0-160-71.634-160-160s71.634-160 160-160z" />
<glyph unicode="&#xe91c;" glyph-name="cube" d="M528.124 891.641c-9.963 5.812-22.285 5.812-32.247 0l-367.876-214.594 384-223.999 384 223.999-367.876 214.594zM928 621.62l-384-224.001v-384l368.124 214.741c9.83 5.734 15.876 16.256 15.876 27.639v365.62zM480 13.619v384l-384 224.001v-365.62c0-11.383 6.045-21.905 15.876-27.639l368.124-214.741z" />
<glyph unicode="&#xe91d;" glyph-name="document" d="M240 896c-44.183 0-80-35.817-80-80v-736c0-44.181 35.817-80 80-80h544c44.181 0 80 35.819 80 80v336c0 88.367-71.633 160-160 160h-80c-44.181 0-80 35.817-80 80v80c0 88.366-71.633 160-160 160h-144zM553.438 882.522c33.997-39.278 54.562-90.498 54.562-146.522v-80c0-8.837 7.164-16 16-16h80c56.026 0 107.243-20.567 146.522-54.563-37.884 145.021-152.064 259.202-297.084 297.084z" />
<glyph unicode="&#xe91e;" glyph-name="document-duplicate" d="M320 816c0 44.183 35.817 80 80 80h16c88.367 0 160-71.634 160-160v-80c0-44.183 35.819-80 80-80h80c88.367 0 160-71.633 160-160v-144c0-44.181-35.819-80-80-80h-416c-44.183 0-80 35.819-80 80v544zM640 736c0 56.023-20.565 107.244-54.562 146.522 145.020-37.882 259.2-152.063 297.084-297.084-39.279 33.996-90.496 54.563-146.522 54.563h-80c-8.836 0-16 7.163-16 16v80zM208 704h48v-432c0-79.531 64.471-144 144-144h304v-48c0-44.181-35.819-80-80-80h-416c-44.183 0-80 35.819-80 80v544c0 44.183 35.817 80 80 80z" />
<glyph unicode="&#xe91f;" glyph-name="envelope" d="M64 590.118v-366.118c0-70.694 57.308-128 128-128h640c70.694 0 128 57.306 128 128v366.118l-380.915-234.411c-41.139-25.314-93.030-25.314-134.17 0l-380.915 234.411zM960 665.266v6.734c0 70.692-57.306 128-128 128h-640c-70.692 0-128-57.308-128-128v-6.734l414.46-255.052c20.57-12.659 46.511-12.659 67.081 0l414.46 255.052z" />
<glyph unicode="&#xe920;" glyph-name="envelope-open" d="M832-0.009c70.694 0 128 57.306 128 128v348.749l-293.495-171.601 148.668-80.051c15.561-8.38 21.38-27.785 13.005-43.345-8.38-15.561-27.789-21.385-43.349-13.005l-242.483 130.569c-18.944 10.202-41.745 10.202-60.685 0l-242.488-130.569c-15.561-8.38-34.967-2.556-43.346 13.005s-2.557 34.965 13.004 43.345l148.666 80.051-293.495 171.601v-348.749c0-70.694 57.308-128 128-128h640zM64 550.875v31.776c0 47.089 25.855 90.375 67.315 112.7l320 172.308c37.884 20.399 83.486 20.399 121.37 0l320-172.308c41.459-22.325 67.315-65.612 67.315-112.701v-31.775l-359.501-210.195-27.814 14.976c-37.884 20.399-83.486 20.399-121.37 0l-27.812-14.976-359.503 210.195z" />
<glyph unicode="&#xe921;" glyph-name="exclamation-triangle" d="M401.119 831.855l-313.784-543.893c-49.231-85.333 12.355-191.966 110.871-191.966h627.569c98.517 0 160.102 106.633 110.874 191.966l-313.788 543.893c-49.254 85.381-172.484 85.381-221.742 0zM512 608c17.673 0 32-14.327 32-32v-160c0-17.673-14.327-32-32-32s-32 14.327-32 32v160c0 17.673 14.327 32 32 32zM512 256c-17.673 0-32 14.327-32 32s14.327 32 32 32c17.673 0 32-14.327 32-32s-14.327-32-32-32z" />
<glyph unicode="&#xe922;" glyph-name="eye" d="M512 320c70.694 0 128 57.306 128 128s-57.306 128-128 128c-70.694 0-128-57.306-128-128s57.306-128 128-128zM56.465 471.607c-5.126-15.407-5.12-32.077 0.014-47.479 63.535-190.626 243.402-328.128 455.469-328.128 212.164 0 392.098 137.63 455.556 328.393 5.124 15.407 5.12 32.077-0.017 47.479-63.535 190.626-243.401 328.128-455.467 328.128-212.164 0-392.1-137.63-455.556-328.393zM736 448c0-123.712-100.288-224-224-224s-224 100.288-224 224c0 123.712 100.288 224 224 224s224-100.288 224-224z" />
<glyph unicode="&#xe923;" glyph-name="eye-slash" d="M150.627 854.627c-12.497 12.497-32.758 12.497-45.255 0s-12.497-32.758 0-45.255l768.001-767.999c12.497-12.497 32.755-12.497 45.252 0s12.497 32.755 0 45.252l-767.999 768.001zM967.505 424.393c-23.211-69.777-62.007-132.446-112.265-183.868l-132.203 132.203c8.393 23.522 12.962 48.866 12.962 75.273 0 123.712-100.288 224-224 224-26.406 0-51.75-4.57-75.273-12.962l-105.678 105.676c55.844 22.749 116.942 35.285 180.972 35.285 212.066 0 391.932-137.502 455.467-328.128 5.137-15.403 5.141-32.073 0.017-47.479zM672 448c0-7.689-0.542-15.249-1.591-22.643l-181.052 181.053c7.394 1.048 14.955 1.59 22.643 1.59 88.367 0 160-71.634 160-160zM534.643 289.591l-181.053 181.052c-1.048-7.394-1.59-14.955-1.59-22.643 0-88.367 71.634-160 160-160 7.689 0 15.249 0.542 22.643 1.591zM288 448c0 26.406 4.57 51.75 12.962 75.273l-132.218 132.22c-50.263-51.427-89.065-114.101-112.278-183.885-5.126-15.407-5.12-32.077 0.014-47.479 63.535-190.626 243.402-328.128 455.469-328.128 64.038 0 125.141 12.54 180.992 35.294l-105.668 105.668c-23.522-8.393-48.866-12.962-75.273-12.962-123.712 0-224 100.288-224 224z" />
<glyph unicode="&#xe924;" glyph-name="face-frown" d="M512 864c-229.751 0-416-186.249-416-416s186.249-416 416-416c229.751 0 416 186.249 416 416s-186.249 416-416 416zM400 608c23.069 0 35.341-17.869 39.936-27.062 5.551-11.107 8.064-24.211 8.064-36.938s-2.513-25.83-8.064-36.937c-4.595-9.195-16.867-27.063-39.936-27.063s-35.339 17.869-39.936 27.063c-5.553 11.106-8.064 24.209-8.064 36.937s2.511 25.832 8.064 36.938c4.596 9.193 16.867 27.062 39.936 27.062zM584.064 580.938c4.595 9.193 16.866 27.062 39.936 27.062s35.341-17.869 39.936-27.062c5.551-11.107 8.064-24.211 8.064-36.938s-2.513-25.83-8.064-36.937c-4.595-9.195-16.866-27.063-39.936-27.063s-35.341 17.869-39.936 27.063c-5.551 11.106-8.064 24.209-8.064 36.937s2.513 25.832 8.064 36.938zM398.877 241.143c-12.497-12.497-32.758-12.497-45.255 0s-12.497 32.755 0 45.252c43.929 43.93 101.626 65.805 159.162 65.609 57.020-0.196 114.086-22.071 157.619-65.609 12.497-12.497 12.497-32.755 0-45.252-12.493-12.497-32.755-12.497-45.252 0-31.108 31.108-71.774 46.72-112.589 46.861-41.182 0.141-82.3-15.475-113.686-46.861z" />
<glyph unicode="&#xe925;" glyph-name="face-smile" d="M512 864c229.751 0 416-186.249 416-416s-186.249-416-416-416c-229.751 0-416 186.249-416 416s186.249 416 416 416zM400 608c-23.069 0-35.339-17.869-39.936-27.062-5.553-11.107-8.064-24.211-8.064-36.938s2.511-25.83 8.064-36.937c4.596-9.195 16.867-27.063 39.936-27.063s35.341 17.869 39.936 27.063c5.551 11.106 8.064 24.209 8.064 36.937s-2.513 25.832-8.064 36.938c-4.595 9.193-16.867 27.062-39.936 27.062zM584.064 580.938c-5.551-11.107-8.064-24.211-8.064-36.938s2.513-25.83 8.064-36.937c4.595-9.195 16.866-27.063 39.936-27.063s35.341 17.869 39.936 27.063c5.551 11.106 8.064 24.209 8.064 36.937s-2.513 25.832-8.064 36.938c-4.595 9.193-16.866 27.062-39.936 27.062s-35.341-17.869-39.936-27.062zM670.391 289.609c12.497 12.497 12.497 32.755 0 45.252s-32.759 12.497-45.252 0c-62.485-62.481-163.793-62.481-226.276 0-12.497 12.497-32.758 12.497-45.255 0s-12.497-32.755 0-45.252c87.476-87.479 229.308-87.479 316.783 0z" />
<glyph unicode="&#xe926;" glyph-name="fire" d="M553.101 862.463c-5.193 6.967-13.001 11.522-21.623 12.616-8.619 1.094-17.318-1.365-24.090-6.814-79.791-64.206-135.445-157.353-150.984-263.534-28.014 20.308-52.618 45.050-72.773 73.198-5.545 7.743-14.251 12.614-23.75 13.289s-18.807-2.917-25.39-9.799c-65.937-68.924-106.49-162.468-106.49-265.414 0-212.079 171.923-384 384-384 212.079 0 384 171.921 384 384 0 156.198-93.257 290.546-226.995 350.532-47.326 23.104-86.404 56.372-115.904 95.926zM672 351.987c0-88.367-71.633-160-160-160s-160 71.633-160 160c0 17.463 2.799 34.278 7.971 50.010 26.815-19.823 57.637-34.534 91.028-42.697 9.212 59.767 39.095 112.713 82.116 151.305 78.387-10.334 138.884-77.41 138.884-158.618z" />
<glyph unicode="&#xe927;" glyph-name="forward" d="M215.691 658.758c-53.332 30.476-119.691-8.034-119.691-69.46v-346.576c0-61.423 66.359-99.934 119.691-69.457l296.309 169.318v-99.861c0-61.423 66.359-99.934 119.693-69.457l303.253 173.286c53.743 30.711 53.743 108.207 0 138.918l-303.253 173.288c-53.333 30.476-119.693-8.034-119.693-69.46v-99.86l-296.309 169.32z" />
<glyph unicode="&#xe928;" glyph-name="hand-thumb-down" d="M671.159 736h44.134c33.314-50.493 52.706-110.982 52.706-176 0-65.020-19.392-125.508-52.706-176h-6.285c-34.402 0-65.446-19.021-86.677-46.093-32.99-42.065-74.564-77.069-122.086-102.379-30.814-16.41-57.549-40.785-70.511-73.199-9.074-22.677-13.734-46.878-13.734-71.305v-27.025c0-17.673-14.327-32-32-32-53.019 0-96 42.982-96 96 0 49.135 11.075 95.684 30.864 137.289 11.331 23.821-4.565 54.711-30.945 54.711h-133.368c-43.803 0-83.011 29.611-87.648 73.169-1.918 18.014-2.902 36.309-2.902 54.831 0 121.498 42.32 233.113 113.024 320.905 16.538 20.535 42.104 31.095 68.47 31.095h171.348c20.636 0 41.137-3.327 60.717-9.853l132.881-44.294c19.58-6.526 40.081-9.853 60.719-9.853zM924.523 372.356c22.899 58.103 35.477 121.404 35.477 187.643 0 52.057-7.77 102.299-22.212 149.63-11.063 36.268-46.234 58.37-84.151 58.37h-38.733c-19.008 0-30.75-21.26-22.336-38.306 25.246-51.17 39.433-108.775 39.433-169.694 0-72.883-20.305-141.022-55.565-199.074-10.453-17.207 1.207-40.926 21.342-40.926h44.915c35.503 0 68.817 19.328 81.83 52.356z" />
<glyph unicode="&#xe929;" glyph-name="hand-thumb-up" d="M319.693 160c-18.115 0-34.98 10.091-41.609 26.948-14.255 36.254-22.084 75.738-22.084 117.052 0 74.628 25.546 143.287 68.371 197.717 6.439 8.179 15.877 13.18 25.587 16.939 20.174 7.812 37.99 21.944 51.71 39.438 32.99 42.062 74.564 77.068 122.086 102.377 30.814 16.409 57.549 40.786 70.511 73.198 9.075 22.679 13.734 46.881 13.734 71.307v27.024c0 17.673 14.327 32 32 32 53.018 0 96-42.981 96-96 0-49.136-11.076-95.686-30.865-137.289-11.332-23.822 4.565-54.711 30.946-54.711h133.367c43.806 0 83.012-29.61 87.65-73.169 1.916-18.014 2.901-36.305 2.901-54.831 0-121.498-42.321-233.114-113.024-320.905-16.538-20.535-42.103-31.095-68.471-31.095h-171.349c-20.634 0-41.135 3.328-60.715 9.852l-132.882 44.297c-19.578 6.524-40.079 9.852-60.716 9.852h-33.149zM99.477 491.644c-22.898-58.103-35.477-121.404-35.477-187.644 0-52.058 7.769-102.298 22.211-149.632 11.066-36.267 46.234-58.368 84.153-58.368h38.732c19.009 0 30.75 21.261 22.339 38.306-25.248 51.17-39.434 108.774-39.434 169.694 0 72.883 20.304 141.022 55.565 199.070 10.453 17.212-1.206 40.93-21.341 40.93h-44.918c-35.5 0-68.813-19.328-81.829-52.356z" />
<glyph unicode="&#xe92a;" glyph-name="light-bulb" d="M512 928c-194.404 0-352-157.596-352-352 0-130.167 70.669-243.789 175.58-304.661 29.246-16.969 47.56-43.004 48.389-69.21 0.457-14.451 10.551-26.803 24.624-30.127 14.992-3.546 30.272-6.332 45.79-8.329 13.807-1.775 25.626 9.289 25.626 23.206v198.874c-13.623 1.506-26.974 3.964-39.979 7.313-17.114 4.403-27.417 21.85-23.012 38.963 4.405 17.118 21.852 27.422 38.965 23.014 17.869-4.599 36.638-7.053 56.026-7.053s38.153 2.453 56.021 7.053c17.118 4.407 34.564-5.897 38.967-23.014 4.407-17.114-5.897-34.56-23.014-38.963-13.005-3.349-26.351-5.807-39.974-7.313v-198.869c0-13.922 11.819-24.981 25.626-23.206 15.514 1.993 30.784 4.779 45.773 8.324 14.071 3.324 24.166 15.676 24.623 30.127 0.828 26.206 19.145 52.241 48.388 69.21 104.913 60.873 175.582 174.494 175.582 304.661 0 194.404-157.598 352-352 352zM384.561 110.946c3.294 17.365 20.040 28.77 37.403 25.476 29.138-5.525 59.235-8.422 90.036-8.422s60.898 2.897 90.035 8.422c17.365 3.294 34.112-8.111 37.406-25.476 3.294-17.361-8.115-34.108-25.476-37.402-33.054-6.268-67.14-9.545-101.965-9.545s-68.911 3.277-101.964 9.545c-17.363 3.294-28.769 20.041-25.475 37.402zM416.174 6.656c1.839 17.579 17.58 30.336 35.154 28.497 19.93-2.082 40.171-3.153 60.672-3.153s40.742 1.071 60.672 3.153c17.574 1.839 33.314-10.918 35.153-28.497 1.839-17.574-10.918-33.314-28.497-35.153-22.135-2.317-44.599-3.503-67.328-3.503s-45.193 1.186-67.328 3.503c-17.579 1.839-30.337 17.579-28.498 35.153z" />
<glyph unicode="&#xe92b;" glyph-name="list-bullet" d="M112 672c0 26.51 21.49 48 48 48s48-21.49 48-48c0-26.51-21.49-48-48-48s-48 21.49-48 48zM320 672c0 17.673 14.327 32 32 32h512c17.673 0 32-14.327 32-32s-14.327-32-32-32h-512c-17.673 0-32 14.327-32 32zM112 448c0 26.509 21.49 48 48 48s48-21.491 48-48c0-26.509-21.49-48-48-48s-48 21.491-48 48zM320 448c0 17.673 14.327 32 32 32h512c17.673 0 32-14.327 32-32s-14.327-32-32-32h-512c-17.673 0-32 14.327-32 32zM112 224c0 26.509 21.49 48 48 48s48-21.491 48-48c0-26.509-21.49-48-48-48s-48 21.491-48 48zM320 224c0 17.673 14.327 32 32 32h512c17.673 0 32-14.327 32-32s-14.327-32-32-32h-512c-17.673 0-32 14.327-32 32z" />
<glyph unicode="&#xe92c;" glyph-name="lock-closed" d="M512 896c123.712 0 224-100.288 224-224v-128c70.694 0 128-57.306 128-128v-288c0-70.694-57.306-128-128-128h-448c-70.692 0-128 57.306-128 128v288c0 70.694 57.308 128 128 128v128c0 123.712 100.288 224 224 224zM672 544v128c0 88.366-71.633 160-160 160s-160-71.634-160-160v-128h320z" />
<glyph unicode="&#xe92d;" glyph-name="lock-open" d="M768 896c123.712 0 224-100.288 224-224v-160c0-17.673-14.327-32-32-32s-32 14.327-32 32v160c0 88.366-71.633 160-160 160s-160-71.634-160-160v-128c70.694 0 128-57.306 128-128v-288c0-70.694-57.306-128-128-128h-448c-70.692 0-128 57.306-128 128v288c0 70.694 57.308 128 128 128h384v128c0 123.712 100.288 224 224 224z" />
<glyph unicode="&#xe92e;" glyph-name="moon" d="M406.545 886.71c9.173-9.173 11.901-22.978 6.904-34.95-18.961-45.441-29.449-95.335-29.449-147.76 0-212.079 171.921-384 384-384 52.425 0 102.319 10.487 147.759 29.449 11.972 4.996 25.779 2.27 34.953-6.903s11.9-22.98 6.903-34.953c-67.511-161.788-227.234-275.593-413.615-275.593-247.424 0-448 200.576-448 448 0 186.38 113.807 346.105 275.594 413.615 11.973 4.996 25.777 2.269 34.95-6.905z" />
<glyph unicode="&#xe92f;" glyph-name="pencil1" d="M927.198 863.196c-43.742 43.738-114.654 43.738-158.391 0l-49.374-49.372 158.391-158.392 49.374 49.372c43.738 43.739 43.738 114.653 0 158.392zM832.572 610.177l-158.396 158.392-518.434-518.436c-26.316-26.317-45.661-58.773-56.286-94.443l-34.124-114.556c-3.354-11.26-0.268-23.454 8.041-31.761 8.308-8.311 20.502-11.396 31.763-8.043l114.555 34.125c35.668 10.624 68.127 29.969 94.443 56.286l518.437 518.435z" />
<glyph unicode="&#xe930;" glyph-name="pencil-square" d="M927.198 863.196c-43.742 43.738-114.654 43.738-158.396 0l-49.37-49.372 158.391-158.392 49.374 49.371c43.738 43.739 43.738 114.653 0 158.392zM832.567 610.178l-158.391 158.392-358.435-358.436c-26.316-26.317-45.661-58.773-56.285-94.443l-34.124-114.556c-3.354-11.26-0.268-23.454 8.041-31.761 8.308-8.311 20.502-11.396 31.763-8.043l114.555 34.125c35.668 10.624 68.125 29.969 94.442 56.286l358.434 358.436zM224 736c-70.692 0-128-57.308-128-128v-448c0-70.69 57.308-128 128-128h448c70.694 0 128 57.31 128 128v224c0 17.673-14.327 32-32 32s-32-14.327-32-32v-224c0-35.345-28.655-64-64-64h-448c-35.346 0-64 28.655-64 64v448c0 35.346 28.654 64 64 64h224c17.673 0 32 14.327 32 32s-14.327 32-32 32h-224z" />
<glyph unicode="&#xe931;" glyph-name="play" d="M192 718.803c0 60.848 65.237 99.421 118.554 70.097l492.399-270.82c55.262-30.391 55.262-109.798 0-140.194l-492.399-270.818c-53.316-29.325-118.554 9.25-118.554 70.097v541.638z" />
<glyph unicode="&#xe932;" glyph-name="plus" d="M512 800c17.673 0 32-14.327 32-32v-288h288c17.673 0 32-14.327 32-32s-14.327-32-32-32h-288v-288c0-17.673-14.327-32-32-32s-32 14.327-32 32v288h-288c-17.673 0-32 14.327-32 32s14.327 32 32 32h288v288c0 17.673 14.327 32 32 32z" />
<glyph unicode="&#xe933;" glyph-name="scale" d="M512 864c-17.673 0-32-14.327-32-32v-32.241c-88.248-1.332-175.177-8.16-260.458-20.163-43.786-6.162-87.137-13.688-130.007-22.534-16.076-3.317-27.035-18.26-25.368-34.59s15.42-28.75 31.834-28.75h81.821l-105.54-431.98c-3.466-14.187 3.111-28.915 15.985-35.806 40.475-21.666 86.72-33.937 135.735-33.937s95.261 12.271 135.735 33.937c12.874 6.891 19.45 21.619 15.985 35.806l-105.54 431.98h209.818v-566.649c-55.151-3.2-108.142-14.626-157.737-33.084-14.513-5.402-23.076-20.42-20.332-35.661s16.008-26.33 31.494-26.33h357.135c15.484 0 28.749 11.089 31.492 26.33s-5.82 30.259-20.331 35.661c-49.591 18.458-102.575 29.879-157.722 33.084v566.649h209.822l-105.54-431.98c-3.465-14.187 3.11-28.915 15.983-35.806 40.478-21.666 86.72-33.937 135.735-33.937s95.262 12.271 135.735 33.937c12.877 6.891 19.452 21.619 15.987 35.806l-105.54 431.98h81.818c16.418 0 30.17 12.42 31.838 28.75 1.664 16.33-9.293 31.273-25.37 34.59-42.871 8.845-86.221 16.371-130.005 22.534-85.282 12.002-172.215 18.831-260.463 20.163v32.241c0 17.673-14.327 32-32 32zM720.128 286.148l79.872 326.931 79.876-326.931h-159.748zM303.877 286.148h-159.75l79.875 326.931 79.875-326.931z" />
<glyph unicode="&#xe934;" glyph-name="shopping-cart" d="M96 864c-17.673 0-32-14.327-32-32s14.327-32 32-32h59.122c7.249 0 13.592-4.873 15.46-11.878l109.13-409.238c-68.863-17.86-119.712-80.435-119.712-154.884 0-17.673 14.327-32 32-32h672c17.673 0 32 14.327 32 32s-14.327 32-32 32h-634.537c13.179 37.286 48.739 64 90.537 64h478.647c12.237 0 23.403 6.98 28.766 17.984 48.435 99.392 90.701 202.345 126.302 308.362 2.833 8.435 2.027 17.668-2.227 25.484s-11.567 13.507-20.19 15.708c-205.73 52.54-421.278 80.462-643.298 80.462-15.267 0-30.505-0.132-45.71-0.395l-9.869 37.008c-9.339 35.020-41.055 59.387-77.299 59.387h-59.122zM160 96c0 35.345 28.654 64 64 64s64-28.655 64-64c0-35.345-28.654-64-64-64s-64 28.655-64 64zM704 96c0 35.345 28.655 64 64 64s64-28.655 64-64c0-35.345-28.655-64-64-64s-64 28.655-64 64z" />
<glyph unicode="&#xe935;" glyph-name="sparkles" d="M384 768c14.287 0 26.844-9.471 30.769-23.209l34.695-121.437c15.189-53.153 56.738-94.701 109.892-109.89l121.434-34.697c13.739-3.925 23.211-16.478 23.211-30.767s-9.472-26.842-23.211-30.767l-121.434-34.697c-53.154-15.189-94.703-56.738-109.892-109.892l-34.695-121.434c-3.925-13.739-16.481-23.211-30.769-23.211s-26.844 9.472-30.769 23.211l-34.697 121.434c-15.187 53.154-56.735 94.703-109.888 109.892l-121.437 34.697c-13.738 3.925-23.209 16.478-23.209 30.767s9.471 26.842 23.209 30.767l121.437 34.697c53.153 15.189 94.702 56.737 109.888 109.89l34.697 121.437c3.925 13.738 16.481 23.209 30.769 23.209zM768 896c14.686 0 27.482-9.993 31.044-24.239l11.046-44.18c10.031-40.128 41.361-71.46 81.489-81.492l44.181-11.045c14.246-3.561 24.239-16.361 24.239-31.045s-9.993-27.483-24.239-31.045l-44.181-11.045c-40.128-10.032-71.458-41.364-81.489-81.492l-11.046-44.18c-3.563-14.246-16.358-24.239-31.044-24.239s-27.482 9.993-31.044 24.239l-11.046 44.18c-10.031 40.128-41.361 71.46-81.489 81.492l-44.181 11.045c-14.246 3.561-24.239 16.361-24.239 31.045s9.993 27.483 24.239 31.045l44.181 11.045c40.128 10.032 71.458 41.364 81.489 81.492l11.046 44.18c3.563 14.246 16.358 24.239 31.044 24.239zM704 320c13.773 0 26.001-8.815 30.357-21.879l16.823-50.466c6.37-19.11 21.363-34.103 40.474-40.474l50.466-16.823c13.065-4.356 21.879-16.585 21.879-30.357s-8.815-26.001-21.879-30.357l-50.466-16.823c-19.11-6.37-34.103-21.363-40.474-40.474l-16.823-50.466c-4.356-13.065-16.585-21.879-30.357-21.879s-26.001 8.815-30.357 21.879l-16.823 50.466c-6.37 19.11-21.363 34.103-40.474 40.474l-50.466 16.823c-13.065 4.356-21.879 16.585-21.879 30.357s8.815 26.001 21.879 30.357l50.466 16.823c19.11 6.37 34.103 21.363 40.474 40.474l16.823 50.466c4.356 13.065 16.585 21.879 30.357 21.879z" />
<glyph unicode="&#xe936;" glyph-name="speaker-wave" d="M576 786.746c0 57.018-68.937 85.573-109.257 45.255l-191.998-192h-82.359c-48.697 0-98.901-28.349-113.483-81.282-9.721-35.289-14.903-72.422-14.903-110.719 0-38.293 5.183-75.426 14.903-110.716 14.582-52.932 64.786-81.284 113.483-81.284h82.359l191.998-192c40.32-40.316 109.257-11.763 109.257 45.257v677.49zM792.905 742.161c12.497 12.497 32.755 12.497 45.252 0 162.462-162.458 162.462-425.856 0-588.313-12.497-12.497-32.755-12.497-45.252 0s-12.497 32.759 0 45.257c137.463 137.463 137.463 360.337 0 497.802-12.497 12.497-12.497 32.758 0 45.255zM679.778 629.020c12.497 12.497 32.759 12.497 45.257 0 99.972-99.975 99.972-262.065 0-362.038-12.497-12.497-32.759-12.497-45.257 0s-12.497 32.755 0 45.252c74.982 74.982 74.982 196.548 0 271.531-12.497 12.497-12.497 32.758 0 45.255z" />
<glyph unicode="&#xe937;" glyph-name="speaker-x-mark" d="M576 786.746c0 57.018-68.937 85.573-109.257 45.255l-191.998-192h-82.359c-48.697 0-98.901-28.349-113.483-81.282-9.721-35.289-14.903-72.422-14.903-110.719 0-38.293 5.183-75.426 14.903-110.716 14.582-52.932 64.786-81.284 113.483-81.284h82.359l191.998-192c40.32-40.316 109.257-11.763 109.257 45.257v677.49zM758.626 566.63c-12.497 12.497-32.755 12.497-45.252 0s-12.497-32.758 0-45.256l73.37-73.374-73.37-73.37c-12.497-12.497-12.497-32.759 0-45.257s32.755-12.497 45.252 0l73.374 73.374 73.374-73.374c12.497-12.497 32.755-12.497 45.252 0s12.497 32.759 0 45.257l-73.37 73.37 73.37 73.374c12.497 12.497 12.497 32.759 0 45.256s-32.755 12.497-45.252 0l-73.374-73.373-73.374 73.373z" />
<glyph unicode="&#xe938;" glyph-name="star" d="M460.292 823.006c19.127 45.992 84.284 45.992 103.411 0l88.832-213.577 230.575-18.485c49.651-3.981 69.786-65.943 31.957-98.353l-175.676-150.481 53.67-225.003c11.558-48.452-41.152-86.746-83.661-60.783l-197.406 120.572-197.402-120.572c-42.51-25.963-95.22 12.331-83.662 60.783l53.671 225.003-175.674 150.481c-37.83 32.41-17.697 94.372 31.956 98.353l230.575 18.485 88.832 213.577z" />
<glyph unicode="&#xe939;" glyph-name="user" d="M319.998 704c0 106.039 85.961 192 192.002 192 106.035 0 192-85.961 192-192s-85.965-192-192-192c-106.040 0-192.002 85.961-192.002 192zM160.052 102.174c3.3 191.561 159.605 345.826 351.948 345.826 192.346 0 348.655-154.27 351.945-345.839 0.218-12.706-7.1-24.337-18.65-29.636-101.5-46.575-214.404-72.525-333.282-72.525-118.89 0-231.804 25.954-333.312 72.538-11.549 5.299-18.868 16.93-18.649 29.636z" />
<glyph unicode="&#xe93a;" glyph-name="x-mark" d="M233.373 726.627c12.497 12.497 32.758 12.497 45.255 0l233.373-233.371 233.374 233.371c12.497 12.497 32.755 12.497 45.252 0s12.497-32.758 0-45.255l-233.37-233.373 233.37-233.374c12.497-12.497 12.497-32.755 0-45.252s-32.755-12.497-45.252 0l-233.374 233.37-233.373-233.37c-12.497-12.497-32.758-12.497-45.255 0s-12.497 32.755 0 45.252l233.371 233.374-233.371 233.373c-12.497 12.497-12.497 32.758 0 45.255z" />
<glyph unicode="&#xe93b;" glyph-name="chevron-double-down" d="M854.626 758.627c12.497-12.497 12.497-32.758 0-45.255l-320-319.999c-12.497-12.497-32.755-12.497-45.252 0l-320.001 319.999c-12.497 12.497-12.497 32.758 0 45.255s32.758 12.497 45.255 0l297.373-297.371 297.374 297.371c12.497 12.497 32.755 12.497 45.252 0zM854.626 502.626c12.497-12.497 12.497-32.755 0-45.252l-320-320c-12.497-12.497-32.755-12.497-45.252 0l-320.001 320c-12.497 12.497-12.497 32.755 0 45.252s32.758 12.497 45.255 0l297.373-297.37 297.374 297.37c12.497 12.497 32.755 12.497 45.252 0z" />
<glyph unicode="&#xe93c;" glyph-name="quill" d="M0-64c128 384 463 1024 1024 1024-263-211-384-704-576-704s-192 0-192 0l-192-320h-64z" />
<glyph unicode="&#xe93d;" glyph-name="eyedropper" d="M986.51 922.51c-49.988 49.986-131.032 49.986-181.020 0l-172.118-172.118-121.372 121.372-135.764-135.764 106.426-106.426-472.118-472.118c-8.048-8.048-11.468-18.958-10.3-29.456h-0.244v-160c0-17.674 14.328-32 32-32h160c0 0 2.664 0 4 0 9.212 0 18.426 3.516 25.456 10.544l472.118 472.118 106.426-106.426 135.764 135.764-121.372 121.372 172.118 172.118c49.986 49.988 49.986 131.032 0 181.020zM173.090 0h-109.090v109.090l469.574 469.572 109.088-109.088-469.572-469.574z" />
<glyph unicode="&#xe93e;" glyph-name="droplet" d="M864.626 486.838c-65.754 183.44-205.11 348.15-352.626 473.162-147.516-125.012-286.87-289.722-352.626-473.162-40.664-113.436-44.682-236.562 12.584-345.4 65.846-125.14 198.632-205.438 340.042-205.438s274.196 80.298 340.040 205.44c57.27 108.838 53.25 231.962 12.586 345.398zM738.764 201.044c-43.802-83.252-132.812-137.044-226.764-137.044-55.12 0-108.524 18.536-152.112 50.652 13.242-1.724 26.632-2.652 40.112-2.652 117.426 0 228.668 67.214 283.402 171.242 44.878 85.292 40.978 173.848 23.882 244.338 14.558-28.15 26.906-56.198 36.848-83.932 22.606-63.062 40.024-156.34-5.368-242.604z" />
<glyph unicode="&#xe93f;" glyph-name="pause" d="M288 736c0 17.673 14.327 32 32 32h64c17.673 0 32-14.327 32-32v-576c0-17.673-14.327-32-32-32h-64c-8.487 0-16.626 3.371-22.627 9.374-6.001 5.999-9.373 14.14-9.373 22.626v576zM608 736c0 17.673 14.327 32 32 32h64c8.486 0 16.627-3.372 22.626-9.373 6.003-6.001 9.374-14.141 9.374-22.627v-576c0-17.673-14.327-32-32-32h-64c-17.673 0-32 14.327-32 32v576z" />
<glyph unicode="&#xe940;" glyph-name="chevron-double-up" d="M489.374 758.627c12.497 12.497 32.755 12.497 45.252 0l320-320.001c12.497-12.497 12.497-32.755 0-45.252s-32.755-12.497-45.252 0l-297.374 297.371-297.373-297.371c-12.497-12.497-32.758-12.497-45.255 0s-12.497 32.755 0 45.252l320.001 320.001zM512 434.743l-297.373-297.37c-12.497-12.497-32.758-12.497-45.255 0s-12.497 32.755 0 45.252l320.001 320c12.497 12.497 32.755 12.497 45.252 0l320-320c12.497-12.497 12.497-32.755 0-45.252s-32.755-12.497-45.252 0l-297.374 297.37z" />
<glyph unicode="&#xe941;" glyph-name="ring-f-svgrepo-com" d="M512 960c282.77 0 512-229.23 512-512s-229.23-512-512-512-512 229.23-512 512 229.23 512 512 512zM512 640c-106.039 0-192-85.961-192-192s85.961-192 192-192 192 85.961 192 192-85.961 192-192 192zM512 576c70.692 0 128-57.308 128-128s-57.308-128-128-128-128 57.308-128 128 57.308 128 128 128z" />
<glyph unicode="&#xe942;" glyph-name="lantern-flame-svgrepo-com1" d="M867.136 572.544l-309.792 219.168c14.848 12.672 24.256 31.488 24.256 52.512 0 38.112-30.912 69.024-69.024 69.024s-69.024-30.912-69.024-69.024c0-20.576 9.024-39.072 23.328-51.712l-309.664-220h709.888zM676.64 69.28l130.56 464.768h-590.016l130.56-464.768h328.896zM533.696 482.048c104.576-82.944-16.288-135.904 31.84-196.288 19.84-24.896 59.936-3.36 69.6 44.704 25.6-92.48-23.744-199.424-121.28-199.424-42.080 1.28-77.92 34.048-100.288 83.968-33.248 126.272 178.048 171.744 120.128 267.040zM204.64 37.088h602.56v-56.8h-602.56v56.8z" />
<glyph unicode="&#xe943;" glyph-name="question-mark-svgrepo-com" d="M792.276 789.41c-26.344 50.074-67.59 91.796-118.684 122.060-51.072 30.13-112.722 48.528-179.632 48.528-82.476 0.204-151-21.284-202.718-51.042-51.924-29.652-74.312-64.176-74.312-64.176-8.726-7.572-13.648-18.588-13.442-30.112 0.236-11.54 5.55-22.372 14.546-29.568l71.866-57.56c14.648-11.728 35.612-11.288 49.75 1.036 0 0 8.828 15.956 36.494 31.76 27.82 15.7 63.89 28.346 117.816 28.516 47.034 0.102 88.044-17.45 116.032-41.434 13.904-11.882 24.29-25.188 30.656-37.36 6.416-12.272 8.758-23 8.726-31.148-0.136-27.532-5.484-45.54-13.206-60.884-5.89-11.458-13.578-21.626-23.476-31.488-14.768-14.768-34.796-28.414-57.268-40.958-22.49-12.696-46.73-23.864-71.224-37.36-27.956-15.48-57.54-37.716-79.402-71.088-10.898-16.498-19.42-35.372-24.832-55.282-5.484-19.928-7.96-40.824-7.96-62.142 0-22.744 0-41.416 0-41.416 0-21.438 17.38-38.82 38.82-38.82h93.524c21.438 0 38.82 17.382 38.82 38.82 0 0 0 18.672 0 41.416 0 8.214 0.934 13.51 1.834 16.872 1.546 5.024 2.412 6.28 4.94 9.336 2.58 2.904 7.79 7.348 17.396 12.662 14.038 7.892 36.596 18.552 62.14 32.352 38.242 20.912 84.734 49.292 123.944 96.124 19.504 23.372 36.748 51.516 48.646 83.936 12.002 32.42 18.484 68.862 18.452 107.92-0.036 39.568-10.764 77.148-28.246 110.5zM457.618 147.12c-58.304 0-105.576-47.288-105.576-105.576 0-58.272 47.274-105.544 105.576-105.544 58.272 0 105.526 47.272 105.526 105.544 0 58.288-47.254 105.576-105.526 105.576z" />
<glyph unicode="&#xe944;" glyph-name="bishop-svgrepo-com" d="M713.067 80.769h-11.754c7.631 11.502 28.678 50.104-2.454 88.24-30.677 37.588-86.644 136.31-84.269 221.979h12.305c15.228 0 26.427 12.347 26.427 27.575v3.447c0 15.228-11.199 27.575-26.427 27.575h-14.935v14.77c44.809 30.922 70.699 81.009 70.699 137.579 0 35.613-24.166 89.998-54.526 143.807l-63.95-64.095c-10.723-10.723-28.202-10.723-38.929-0.003l-3.175 3.216c-10.723 10.72-10.706 28.271 0.017 38.995l74.715 74.708c-15.318 24.366-30.57 47.146-43.786 66.263 9.93 10.099 16.073 23.935 16.073 39.222 0.003 30.901-25.038 55.953-55.946 55.953s-55.957-25.052-55.957-55.953c0-15.283 6.139-29.119 16.069-39.222-50.273-72.733-130.775-198.496-130.775-262.89 0-58.090 28.189-109.349 72.998-140.030v-12.319h-16.087c-15.228 0-28.723-12.347-28.723-27.575v-3.447c0-15.228 13.495-27.575 28.723-27.575h12.309c2.375-85.672-53.589-184.391-84.269-221.979-31.129-38.136-10.086-76.738-2.454-88.24h-11.757c-15.228 0-28.723-12.347-28.723-27.575v-31.022c0-14.056 10.341-25.638 24.128-27.337v-58.835h406.732v58.835c13.788 1.699 24.128 13.281 24.128 27.337v31.022c0 15.228-11.199 27.575-26.427 27.575z" />
<glyph unicode="&#xe945;" glyph-name="butterfly-svgrepo-com" d="M994.112 523.904c-181.952 101.888-382.72 65.248-535.584-94.976 181.248-99.52 383.68-64.704 535.584 94.976zM115.808 881.12c199.264-56.256 314.528-222.976 309.376-442.816-197.12 57.408-314.816 224.032-309.376 442.816v0zM445.44 391.36c170.4-67.456 225.856-204.928 150.432-365.6-168 68.032-225.824 205.76-150.432 365.6v0zM413.664 402.528c-165.632 67.968-302.112 9.152-364.864-154.464 164.416-65.952 302.656-8.544 364.864 154.464z" />
<glyph unicode="&#xe946;" glyph-name="candle-svgrepo-com" d="M466.24 406.848c-30.88 31.168-51.968 87.36-51.968 152.128 0 98.304 62.464 178.080 106.304 178.080 42.208 0 106.304-79.776 106.304-178.080 0-60.672-18.784-113.472-46.464-145.632 72.064 35.968 123.648 71.328 123.648 182.944 0 142.496-133.344 316.704-187.424 316.704-55.744 0-187.424-174.208-187.424-316.704 0-118.496 57.952-159.168 137.024-189.44zM683.328 341.184v49.184c-53.952-20.032-108.704-29.728-163.104-29.792 4.768 58.624 2.944 119.328-8.64 198.496l-4.128-198.336c-51.808 1.376-103.168 11.456-152.96 29.664v-190.816c-6.656-51.072-44.768-60.832-44.096-106.592 0.576-39.040 29.92-51.904 44.096-35.2v-72.384h328.864v176.32c17.216-21.728 54.24-6.016 54.976 42.624 0.864 57.984-48.896 68.992-54.976 136.864z" />
<glyph unicode="&#xe947;" glyph-name="carrot-svgrepo-com" d="M736.032 521.792c-46.592-53.12-22.944-43.744-108.672-86.368l108.352 86.816c-25.92 34.496-53.536 65.92-82.592 92.416-52.064-79.296-87.36-91.104-156.864-121.024l156.192 121.632c-48.896 44.384-101.856 74.784-157.728 82.048-16 2.080-32.896 0.096-49.664-5.088-63.136 94.912-33.408 128.896 11.36 216.416-62.912-22.016-73.216-33.6-103.552-134.528-36.8 67.040-152.64 115.68-248.704 128.416 87.392-60.192 154.464-116.768 153.152-189.92-71.616 13.248-130.144 1.632-209.824-41.344 127.68 12.128 260.832 6.048 299.712-49.696-19.648-25.824-32.032-55.296-31.712-83.552 3.424-282.912 619.456-621.088 647.84-548.288 13.76 35.264-78.464 333.696-227.296 532.032z" />
<glyph unicode="&#xe948;" glyph-name="chess-rook-svgrepo-com" d="M864 896h-112c-17.673 0-32-14.327-32-32v0-96h-96v96c0 17.673-14.327 32-32 32v0h-160c-17.673 0-32-14.327-32-32v0-96h-95.8v96c0 17.673-14.327 32-32 32v0h-112.2c-17.673 0-32-14.327-32-32v0-352l128-64c0-96.66-3.080-190-26.42-320h564.84c-23.34 130-26.42 224.56-26.42 320l128 64v352c0 17.673-14.327 32-32 32v0zM576 320h-128v128c0 35.346 28.654 64 64 64s64-28.654 64-64v0zM864 64h-704c-17.673 0-32-14.327-32-32v0-64c0-17.673 14.327-32 32-32v0h704c17.673 0 32 14.327 32 32v0 64c0 17.673-14.327 32-32 32v0z" />
<glyph unicode="&#xe949;" glyph-name="discord-svgrepo-com" d="M428.8 522.667c-26.187-1.148-46.982-22.657-46.982-49.022 0-0.766 0.018-1.528 0.052-2.285l-0.004 0.107c-0.031-0.65-0.048-1.412-0.048-2.178 0-26.365 20.795-47.874 46.878-49.019l0.103-0.004c28.277 0 51.2 22.923 51.2 51.2s-22.923 51.2-51.2 51.2v0zM597.333 522.667c-1.278 0.113-2.765 0.178-4.266 0.178-28.277 0-51.2-22.923-51.2-51.2s22.923-51.2 51.2-51.2c28.214 0 51.099 22.822 51.2 51.012v0.010c0.031 0.65 0.048 1.412 0.048 2.178 0 26.365-20.795 47.874-46.878 49.019l-0.103 0.004zM821.333 917.333h-618.667c-53.019 0-96-42.981-96-96v0-635.733c0-53.019 42.981-96 96-96v0h524.8l-25.6 87.467 59.733-57.6 55.467-51.2 100.267-89.6v842.667c0 53.019-42.981 96-96 96v0zM644.267 305.067l-32 38.4c35.106 8.161 64.657 27.988 85.062 55.091l0.271 0.376c-15.257-10.011-32.797-19.308-51.199-26.948l-2.134-0.785c-19.596-8.97-42.461-16.351-66.298-21.013l-1.968-0.321c-17.96-3.577-38.607-5.625-59.733-5.625s-41.774 2.047-61.756 5.954l2.022-0.329c-26.433 5.966-49.233 13.298-71.122 22.384l2.856-1.050-34.133 14.933h-4.267c0 2.133 0 2.133-2.133 2.133l-12.8 8.533c19.677-26.739 47.628-46.38 80.034-55.227l1.032-0.24-29.867-38.4c-1.423-0.043-3.097-0.067-4.777-0.067-56.604 0-106.772 27.556-137.82 69.986l-0.336 0.481c1.596 99.965 26.656 193.722 69.89 276.481l-1.624-3.414c35.337 28.905 80.437 47.091 129.71 49.053l0.424 0.013 4.267-4.267c-46.749-12.749-87.425-34.060-122.203-62.342l0.603 0.475 27.733 12.8c30.322 16.133 65.871 26.833 103.592 29.807l0.942 0.060h8.533c13.758 1.528 29.711 2.4 45.867 2.4s32.108-0.872 47.812-2.571l-1.946 0.171c52.469-5.073 100.284-21.071 142.45-45.69l-1.65 0.89c-32.030 27.418-70.689 48.087-113.193 59.284l-2.007 0.449 6.4 6.4c49.697-1.975 94.796-20.162 130.526-49.378l-0.392 0.311c40.422-79.581 64.69-173.325 66.128-272.596l0.005-0.471s-38.4-64-140.8-66.133z" />
<glyph unicode="&#xe94a;" glyph-name="knife-svgrepo-com" d="M467.264 692.512l-1.216-1.12c-60.832 104.672-138.208 195.872-260.768 252.16-42.976 19.744-75.584-12.96-92.832-51.328-67.68-150.784 169.76 3.104 293.536-255.072l-0.48-0.448c-9.152-65.408-98.816-131.744-179.648-134.304 155.264-370.176 512.928-637.312 763.296-476.544-329.088 112.608-386.464 421.792-521.856 666.624z" />
<glyph unicode="&#xe94b;" glyph-name="lantern-flame-svgrepo-com" d="M867.136 572.544l-309.792 219.168c14.848 12.672 24.256 31.488 24.256 52.512 0 38.112-30.912 69.024-69.024 69.024s-69.024-30.912-69.024-69.024c0-20.576 9.024-39.072 23.328-51.712l-309.664-220h709.888zM676.64 69.28l130.56 464.768h-590.016l130.56-464.768h328.896zM533.696 482.048c104.576-82.944-16.288-135.904 31.84-196.288 19.84-24.896 59.936-3.36 69.6 44.704 25.6-92.48-23.744-199.424-121.28-199.424-42.080 1.28-77.92 34.048-100.288 83.968-33.248 126.272 178.048 171.744 120.128 267.040zM204.64 37.088h602.56v-56.8h-602.56v56.8z" />
<glyph unicode="&#xe94c;" glyph-name="shield-svgrepo-com" d="M512 21.333c-48.981 0-145.835 58.112-218.88 142.507-103.68 119.723-165.12 285.568-165.12 497.493 0 0.005 0 0.010 0 0.016 0 17.862 10.976 33.161 26.552 39.519l0.285 0.103c139.691 55.893 250.88 111.488 333.483 166.528 6.653 4.494 14.854 7.174 23.68 7.174s17.027-2.68 23.832-7.271l-0.152 0.096c82.56-55.040 193.835-110.677 333.483-166.528 15.861-6.461 26.837-21.759 26.837-39.622 0-0.005 0-0.011 0-0.016v0.001c0-211.968-61.44-377.813-165.12-497.493-73.003-84.352-169.856-142.507-218.88-142.507z" />
<glyph unicode="&#xe94d;" glyph-name="hourglass-2-svgrepo-com" d="M298.5 224.868c0-60.942 0-106.648 0-106.648h426.996c0 0 0 45.708 0 106.648 0 121.89-170.262 173.562-170.262 214.7v23.086c0 41.136 170.262 92.808 170.262 214.696 0 60.944 0 106.652 0 106.652h-426.996c0 0 0-45.708 0-106.652 0-121.888 170.262-173.56 170.262-214.696v-23.086c0-41.138-170.262-92.81-170.262-214.7zM243.546 960h536.906v-96h-536.906v96zM243.546 48h536.906v-112h-536.906v112z" />
<glyph unicode="&#xe94e;" glyph-name="home3" d="M1024 352l-192 192v288h-128v-160l-192 192-512-512v-32h128v-320h320v192h128v-192h320v320h128z" />
<glyph unicode="&#xe94f;" glyph-name="office" d="M0-64h512v1024h-512v-1024zM320 832h128v-128h-128v128zM320 576h128v-128h-128v128zM320 320h128v-128h-128v128zM64 832h128v-128h-128v128zM64 576h128v-128h-128v128zM64 320h128v-128h-128v128zM576 640h448v-64h-448zM576-64h128v256h192v-256h128v576h-448z" />
<glyph unicode="&#xe995;" glyph-name="cogs" d="M363.722 237.948l41.298 57.816-45.254 45.256-57.818-41.296c-10.722 5.994-22.204 10.774-34.266 14.192l-11.682 70.084h-64l-11.68-70.086c-12.062-3.418-23.544-8.198-34.266-14.192l-57.818 41.298-45.256-45.256 41.298-57.816c-5.994-10.72-10.774-22.206-14.192-34.266l-70.086-11.682v-64l70.086-11.682c3.418-12.060 8.198-23.544 14.192-34.266l-41.298-57.816 45.254-45.256 57.818 41.296c10.722-5.994 22.204-10.774 34.266-14.192l11.682-70.084h64l11.68 70.086c12.062 3.418 23.544 8.198 34.266 14.192l57.818-41.296 45.254 45.256-41.298 57.816c5.994 10.72 10.774 22.206 14.192 34.266l70.088 11.68v64l-70.086 11.682c-3.418 12.060-8.198 23.544-14.192 34.266zM224 96c-35.348 0-64 28.654-64 64s28.652 64 64 64 64-28.654 64-64-28.652-64-64-64zM1024 576v64l-67.382 12.25c-1.242 8.046-2.832 15.978-4.724 23.79l57.558 37.1-24.492 59.128-66.944-14.468c-4.214 6.91-8.726 13.62-13.492 20.13l39.006 56.342-45.256 45.254-56.342-39.006c-6.512 4.766-13.22 9.276-20.13 13.494l14.468 66.944-59.128 24.494-37.1-57.558c-7.812 1.892-15.744 3.482-23.79 4.724l-12.252 67.382h-64l-12.252-67.382c-8.046-1.242-15.976-2.832-23.79-4.724l-37.098 57.558-59.128-24.492 14.468-66.944c-6.91-4.216-13.62-8.728-20.13-13.494l-56.342 39.006-45.254-45.254 39.006-56.342c-4.766-6.51-9.278-13.22-13.494-20.13l-66.944 14.468-24.492-59.128 57.558-37.1c-1.892-7.812-3.482-15.742-4.724-23.79l-67.384-12.252v-64l67.382-12.25c1.242-8.046 2.832-15.978 4.724-23.79l-57.558-37.1 24.492-59.128 66.944 14.468c4.216-6.91 8.728-13.618 13.494-20.13l-39.006-56.342 45.254-45.256 56.342 39.006c6.51-4.766 13.22-9.276 20.13-13.492l-14.468-66.944 59.128-24.492 37.102 57.558c7.81-1.892 15.742-3.482 23.788-4.724l12.252-67.384h64l12.252 67.382c8.044 1.242 15.976 2.832 23.79 4.724l37.1-57.558 59.128 24.492-14.468 66.944c6.91 4.216 13.62 8.726 20.13 13.492l56.342-39.006 45.256 45.256-39.006 56.342c4.766 6.512 9.276 13.22 13.492 20.13l66.944-14.468 24.492 59.13-57.558 37.1c1.892 7.812 3.482 15.742 4.724 23.79l67.382 12.25zM672 468.8c-76.878 0-139.2 62.322-139.2 139.2s62.32 139.2 139.2 139.2 139.2-62.322 139.2-139.2c0-76.878-62.32-139.2-139.2-139.2z" />
<glyph unicode="&#xe999;" glyph-name="bug" d="M1024 384v64h-193.29c-5.862 72.686-31.786 139.026-71.67 192.25h161.944l70.060 280.24-62.090 15.522-57.94-231.76h-174.68c-0.892 0.694-1.796 1.374-2.698 2.056 6.71 19.502 10.362 40.422 10.362 62.194 0.002 105.76-85.958 191.498-191.998 191.498s-192-85.738-192-191.5c0-21.772 3.65-42.692 10.362-62.194-0.9-0.684-1.804-1.362-2.698-2.056h-174.68l-57.94 231.76-62.090-15.522 70.060-280.24h161.944c-39.884-53.222-65.806-119.562-71.668-192.248h-193.29v-64h193.37c3.802-45.664 15.508-88.812 33.638-127.75h-123.992l-70.060-280.238 62.090-15.524 57.94 231.762h112.354c58.692-78.032 147.396-127.75 246.66-127.75s187.966 49.718 246.662 127.75h112.354l57.94-231.762 62.090 15.524-70.060 280.238h-123.992c18.13 38.938 29.836 82.086 33.636 127.75h193.37z" />
<glyph unicode="&#xe9a9;" glyph-name="fire1" d="M321.008-64c-68.246 142.008-31.902 223.378 20.55 300.044 57.44 83.956 72.244 167.066 72.244 167.066s45.154-58.7 27.092-150.508c79.772 88.8 94.824 230.28 82.782 284.464 180.314-126.012 257.376-398.856 153.522-601.066 552.372 312.532 137.398 780.172 65.154 832.85 24.082-52.676 28.648-141.85-20-185.126-82.352 312.276-285.972 376.276-285.972 376.276 24.082-161.044-87.296-337.144-194.696-468.73-3.774 64.216-7.782 108.528-41.55 169.98-7.58-116.656-96.732-211.748-120.874-328.628-32.702-158.286 24.496-274.18 241.748-396.622z" />
<glyph unicode="&#xe9b3;" glyph-name="target" d="M1024 512h-100.924c-27.64 178.24-168.836 319.436-347.076 347.076v100.924h-128v-100.924c-178.24-27.64-319.436-168.836-347.076-347.076h-100.924v-128h100.924c27.64-178.24 168.836-319.436 347.076-347.076v-100.924h128v100.924c178.24 27.64 319.436 168.836 347.076 347.076h100.924v128zM792.822 512h-99.762c-19.284 54.55-62.51 97.778-117.060 117.060v99.762c107.514-24.49 192.332-109.31 216.822-216.822zM512 384c-35.346 0-64 28.654-64 64s28.654 64 64 64c35.346 0 64-28.654 64-64s-28.654-64-64-64zM448 728.822v-99.762c-54.55-19.282-97.778-62.51-117.060-117.060h-99.762c24.49 107.512 109.31 192.332 216.822 216.822zM231.178 384h99.762c19.282-54.55 62.51-97.778 117.060-117.060v-99.762c-107.512 24.49-192.332 109.308-216.822 216.822zM576 167.178v99.762c54.55 19.284 97.778 62.51 117.060 117.060h99.762c-24.49-107.514-109.308-192.332-216.822-216.822z" />
<glyph unicode="&#xe9c5;" glyph-name="download2" d="M896 448h-160l-224-224-224 224h-160l-128-256v-64h1024v64l-128 256zM0 64h1024v-64h-1024v64zM576 640v256h-128v-256h-224l288-288 288 288h-224z" />
<glyph unicode="&#xe9c6;" glyph-name="upload2" d="M0 64h1024v-64h-1024zM1024 192v-64h-1024v64l128 256h256v-128h256v128h256zM224 640l288 288 288-288h-224v-256h-128v256z" />
<glyph unicode="&#xea0f;" glyph-name="cross" d="M1014.662 137.34c-0.004 0.004-0.008 0.008-0.012 0.010l-310.644 310.65 310.644 310.65c0.004 0.004 0.008 0.006 0.012 0.010 3.344 3.346 5.762 7.254 7.312 11.416 4.246 11.376 1.824 24.682-7.324 33.83l-146.746 146.746c-9.148 9.146-22.45 11.566-33.828 7.32-4.16-1.55-8.070-3.968-11.418-7.31 0-0.004-0.004-0.006-0.008-0.010l-310.648-310.652-310.648 310.65c-0.004 0.004-0.006 0.006-0.010 0.010-3.346 3.342-7.254 5.76-11.414 7.31-11.38 4.248-24.682 1.826-33.83-7.32l-146.748-146.748c-9.148-9.148-11.568-22.452-7.322-33.828 1.552-4.16 3.97-8.072 7.312-11.416 0.004-0.002 0.006-0.006 0.010-0.010l310.65-310.648-310.65-310.652c-0.002-0.004-0.006-0.006-0.008-0.010-3.342-3.346-5.76-7.254-7.314-11.414-4.248-11.376-1.826-24.682 7.322-33.83l146.748-146.746c9.15-9.148 22.452-11.568 33.83-7.322 4.16 1.552 8.070 3.97 11.416 7.312 0.002 0.004 0.006 0.006 0.010 0.010l310.648 310.65 310.648-310.65c0.004-0.002 0.008-0.006 0.012-0.008 3.348-3.344 7.254-5.762 11.414-7.314 11.378-4.246 24.684-1.826 33.828 7.322l146.746 146.748c9.148 9.148 11.57 22.454 7.324 33.83-1.552 4.16-3.97 8.068-7.314 11.414z" />
<glyph unicode="&#xea10;" glyph-name="checkmark" d="M864 832l-480-480-224 224-160-160 384-384 640 640z" />
<glyph unicode="&#xeab0;" glyph-name="github" d="M512.008 947.358c-282.738 0-512.008-229.218-512.008-511.998 0-226.214 146.704-418.132 350.136-485.836 25.586-4.738 34.992 11.11 34.992 24.632 0 12.204-0.48 52.542-0.696 95.324-142.448-30.976-172.504 60.41-172.504 60.41-23.282 59.176-56.848 74.916-56.848 74.916-46.452 31.778 3.51 31.124 3.51 31.124 51.4-3.61 78.476-52.766 78.476-52.766 45.672-78.27 119.776-55.64 149.004-42.558 4.588 33.086 17.852 55.68 32.506 68.464-113.73 12.942-233.276 56.85-233.276 253.032 0 55.898 20.004 101.574 52.76 137.428-5.316 12.9-22.854 64.972 4.952 135.5 0 0 43.006 13.752 140.84-52.49 40.836 11.348 84.636 17.036 128.154 17.234 43.502-0.198 87.336-5.886 128.256-17.234 97.734 66.244 140.656 52.49 140.656 52.49 27.872-70.528 10.35-122.6 5.036-135.5 32.82-35.856 52.694-81.532 52.694-137.428 0-196.654-119.778-239.95-233.79-252.624 18.364-15.89 34.724-47.046 34.724-94.812 0-68.508-0.596-123.644-0.596-140.508 0-13.628 9.222-29.594 35.172-24.566 203.322 67.776 349.842 259.626 349.842 485.768 0 282.78-229.234 511.998-511.992 511.998z" />
<glyph unicode="" glyph-name="github" d="M512.008 947.358c-282.738 0-512.008-229.218-512.008-511.998 0-226.214 146.704-418.132 350.136-485.836 25.586-4.738 34.992 11.11 34.992 24.632 0 12.204-0.48 52.542-0.696 95.324-142.448-30.976-172.504 60.41-172.504 60.41-23.282 59.176-56.848 74.916-56.848 74.916-46.452 31.778 3.51 31.124 3.51 31.124 51.4-3.61 78.476-52.766 78.476-52.766 45.672-78.27 119.776-55.64 149.004-42.558 4.588 33.086 17.852 55.68 32.506 68.464-113.73 12.942-233.276 56.85-233.276 253.032 0 55.898 20.004 101.574 52.76 137.428-5.316 12.9-22.854 64.972 4.952 135.5 0 0 43.006 13.752 140.84-52.49 40.836 11.348 84.636 17.036 128.154 17.234 43.502-0.198 87.336-5.886 128.256-17.234 97.734 66.244 140.656 52.49 140.656 52.49 27.872-70.528 10.35-122.6 5.036-135.5 32.82-35.856 52.694-81.532 52.694-137.428 0-196.654-119.778-239.95-233.79-252.624 18.364-15.89 34.724-47.046 34.724-94.812 0-68.508-0.596-123.644-0.596-140.508 0-13.628 9.222-29.594 35.172-24.566 203.322 67.776 349.842 259.626 349.842 485.768 0 282.78-229.234 511.998-511.992 511.998z" />
<glyph unicode="yes" glyph-name="checkmark" d="M864 832l-480-480-224 224-160-160 384-384 640 640z" />
<glyph unicode="warning" glyph-name="exclamation-triangle" d="M401.119 831.855l-313.784-543.893c-49.231-85.333 12.355-191.966 110.871-191.966h627.569c98.517 0 160.102 106.633 110.874 191.966l-313.788 543.893c-49.254 85.381-172.484 85.381-221.742 0zM512 608c17.673 0 32-14.327 32-32v-160c0-17.673-14.327-32-32-32s-32 14.327-32 32v160c0 17.673 14.327 32 32 32zM512 256c-17.673 0-32 14.327-32 32s14.327 32 32 32c17.673 0 32-14.327 32-32s-14.327-32-32-32z" />
<glyph unicode="vegetable" glyph-name="carrot-svgrepo-com" d="M736.032 521.792c-46.592-53.12-22.944-43.744-108.672-86.368l108.352 86.816c-25.92 34.496-53.536 65.92-82.592 92.416-52.064-79.296-87.36-91.104-156.864-121.024l156.192 121.632c-48.896 44.384-101.856 74.784-157.728 82.048-16 2.080-32.896 0.096-49.664-5.088-63.136 94.912-33.408 128.896 11.36 216.416-62.912-22.016-73.216-33.6-103.552-134.528-36.8 67.040-152.64 115.68-248.704 128.416 87.392-60.192 154.464-116.768 153.152-189.92-71.616 13.248-130.144 1.632-209.824-41.344 127.68 12.128 260.832 6.048 299.712-49.696-19.648-25.824-32.032-55.296-31.712-83.552 3.424-282.912 619.456-621.088 647.84-548.288 13.76 35.264-78.464 333.696-227.296 532.032z" />
<glyph unicode="upload-tray" glyph-name="arrow-up-tray" d="M489.374 854.627c12.497 12.497 32.755 12.497 45.252 0l192-192c12.497-12.497 12.497-32.758 0-45.255s-32.755-12.497-45.252 0l-137.374 137.373v-498.745c0-17.673-14.327-32-32-32s-32 14.327-32 32v498.745l-137.373-137.373c-12.497-12.497-32.758-12.497-45.255 0s-12.497 32.758 0 45.255l192.001 192zM128 288c17.673 0 32-14.327 32-32v-96c0-35.345 28.654-64 64-64h576c35.345 0 64 28.655 64 64v96c0 17.673 14.327 32 32 32s32-14.327 32-32v-96c0-70.694-57.306-128-128-128h-576c-70.692 0-128 57.306-128 128v96c0 17.673 14.327 32 32 32z" />
<glyph unicode="upload" glyph-name="upload2" d="M0 64h1024v-64h-1024zM1024 192v-64h-1024v64l128 256h256v-128h256v128h256zM224 640l288 288 288-288h-224v-256h-128v256z" />
<glyph unicode="unlocked" glyph-name="lock-open" d="M768 896c123.712 0 224-100.288 224-224v-160c0-17.673-14.327-32-32-32s-32 14.327-32 32v160c0 88.366-71.633 160-160 160s-160-71.634-160-160v-128c70.694 0 128-57.306 128-128v-288c0-70.694-57.306-128-128-128h-448c-70.692 0-128 57.306-128 128v288c0 70.694 57.308 128 128 128h384v128c0 123.712 100.288 224 224 224z" />
<glyph unicode="trash" glyph-name="archive-box" d="M144 832c-44.183 0-80-35.817-80-80v-32c0-44.183 35.817-80 80-80h736c44.181 0 80 35.817 80 80v32c0 44.183-35.819 80-80 80h-736zM131.703 576l23.031-391.518c3.98-67.657 60.006-120.482 127.779-120.482h458.961c67.772 0 123.802 52.826 127.778 120.482l23.031 391.518h-760.581zM394.656 416c0 17.673 14.327 32 32 32h170.668c17.673 0 32-14.327 32-32s-14.327-32-32-32h-170.668c-17.673 0-32 14.327-32 32z" />
<glyph unicode="town" glyph-name="office" d="M0-64h512v1024h-512v-1024zM320 832h128v-128h-128v128zM320 576h128v-128h-128v128zM320 320h128v-128h-128v128zM64 832h128v-128h-128v128zM64 576h128v-128h-128v128zM64 320h128v-128h-128v128zM576 640h448v-64h-448zM576-64h128v256h192v-256h128v576h-448z" />
<glyph unicode="thumbs-up" glyph-name="hand-thumb-up" d="M319.693 160c-18.115 0-34.98 10.091-41.609 26.948-14.255 36.254-22.084 75.738-22.084 117.052 0 74.628 25.546 143.287 68.371 197.717 6.439 8.179 15.877 13.18 25.587 16.939 20.174 7.812 37.99 21.944 51.71 39.438 32.99 42.062 74.564 77.068 122.086 102.377 30.814 16.409 57.549 40.786 70.511 73.198 9.075 22.679 13.734 46.881 13.734 71.307v27.024c0 17.673 14.327 32 32 32 53.018 0 96-42.981 96-96 0-49.136-11.076-95.686-30.865-137.289-11.332-23.822 4.565-54.711 30.946-54.711h133.367c43.806 0 83.012-29.61 87.65-73.169 1.916-18.014 2.901-36.305 2.901-54.831 0-121.498-42.321-233.114-113.024-320.905-16.538-20.535-42.103-31.095-68.471-31.095h-171.349c-20.634 0-41.135 3.328-60.715 9.852l-132.882 44.297c-19.578 6.524-40.079 9.852-60.716 9.852h-33.149zM99.477 491.644c-22.898-58.103-35.477-121.404-35.477-187.644 0-52.058 7.769-102.298 22.211-149.632 11.066-36.267 46.234-58.368 84.153-58.368h38.732c19.009 0 30.75 21.261 22.339 38.306-25.248 51.17-39.434 108.774-39.434 169.694 0 72.883 20.304 141.022 55.565 199.070 10.453 17.212-1.206 40.93-21.341 40.93h-44.918c-35.5 0-68.813-19.328-81.829-52.356z" />
<glyph unicode="thumbs-down" glyph-name="hand-thumb-down" d="M671.159 736h44.134c33.314-50.493 52.706-110.982 52.706-176 0-65.020-19.392-125.508-52.706-176h-6.285c-34.402 0-65.446-19.021-86.677-46.093-32.99-42.065-74.564-77.069-122.086-102.379-30.814-16.41-57.549-40.785-70.511-73.199-9.074-22.677-13.734-46.878-13.734-71.305v-27.025c0-17.673-14.327-32-32-32-53.019 0-96 42.982-96 96 0 49.135 11.075 95.684 30.864 137.289 11.331 23.821-4.565 54.711-30.945 54.711h-133.368c-43.803 0-83.011 29.611-87.648 73.169-1.918 18.014-2.902 36.309-2.902 54.831 0 121.498 42.32 233.113 113.024 320.905 16.538 20.535 42.104 31.095 68.47 31.095h171.348c20.636 0 41.137-3.327 60.717-9.853l132.881-44.294c19.58-6.526 40.081-9.853 60.719-9.853zM924.523 372.356c22.899 58.103 35.477 121.404 35.477 187.643 0 52.057-7.77 102.299-22.212 149.63-11.063 36.268-46.234 58.37-84.151 58.37h-38.733c-19.008 0-30.75-21.26-22.336-38.306 25.246-51.17 39.433-108.775 39.433-169.694 0-72.883-20.305-141.022-55.565-199.074-10.453-17.207 1.207-40.926 21.342-40.926h44.915c35.503 0 68.817 19.328 81.83 52.356z" />
<glyph unicode="target" glyph-name="target" d="M1024 512h-100.924c-27.64 178.24-168.836 319.436-347.076 347.076v100.924h-128v-100.924c-178.24-27.64-319.436-168.836-347.076-347.076h-100.924v-128h100.924c27.64-178.24 168.836-319.436 347.076-347.076v-100.924h128v100.924c178.24 27.64 319.436 168.836 347.076 347.076h100.924v128zM792.822 512h-99.762c-19.284 54.55-62.51 97.778-117.060 117.060v99.762c107.514-24.49 192.332-109.31 216.822-216.822zM512 384c-35.346 0-64 28.654-64 64s28.654 64 64 64c35.346 0 64-28.654 64-64s-28.654-64-64-64zM448 728.822v-99.762c-54.55-19.282-97.778-62.51-117.060-117.060h-99.762c24.49 107.512 109.31 192.332 216.822 216.822zM231.178 384h99.762c19.282-54.55 62.51-97.778 117.060-117.060v-99.762c-107.512 24.49-192.332 109.308-216.822 216.822zM576 167.178v99.762c54.55 19.284 97.778 62.51 117.060 117.060h99.762c-24.49-107.514-109.308-192.332-216.822-216.822z" />
<glyph unicode="sword" glyph-name="eyedropper" d="M986.51 922.51c-49.988 49.986-131.032 49.986-181.020 0l-172.118-172.118-121.372 121.372-135.764-135.764 106.426-106.426-472.118-472.118c-8.048-8.048-11.468-18.958-10.3-29.456h-0.244v-160c0-17.674 14.328-32 32-32h160c0 0 2.664 0 4 0 9.212 0 18.426 3.516 25.456 10.544l472.118 472.118 106.426-106.426 135.764 135.764-121.372 121.372 172.118 172.118c49.986 49.988 49.986 131.032 0 181.020zM173.090 0h-109.090v109.090l469.574 469.572 109.088-109.088-469.572-469.574z" />
<glyph unicode="sun" glyph-name="sun-fog-svgrepo-com" d="M788.51 437.333c11.947 0 22.187 10.24 21.333 22.187-11.52 154.88-140.373 276.48-297.813 276.48s-286.293-121.6-297.813-276.48c-0.853-11.947 9.387-22.187 21.333-22.187h552.96zM938.667 405.333h-3.413c-23.467 0-42.667 19.2-42.667 42.667s19.2 42.667 42.667 42.667c23.467 0 44.373-19.2 44.373-42.667s-17.493-42.667-40.96-42.667zM88.747 405.333h-3.413c-23.467 0-42.667 19.2-42.667 42.667s19.2 42.667 42.667 42.667c23.467 0 44.373-19.2 44.373-42.667s-17.493-42.667-40.96-42.667zM811.093 704.427c-11.093 0-21.76 4.267-30.293 12.373-16.64 16.64-16.64 43.52 0 60.16l5.547 5.547c16.64 16.64 43.52 16.64 60.16 0s16.64-43.52 0-60.16l-5.547-5.547c-8.107-8.107-18.773-12.373-29.867-12.373zM212.907 704.427c-11.093 0-21.76 4.267-30.293 12.373l-5.547 5.973c-16.64 16.64-16.64 43.52 0 60.16s43.52 16.64 60.16 0l5.547-5.547c16.64-16.64 16.64-43.52 0-60.16-8.107-8.533-19.2-12.8-29.867-12.8zM512 830.293c-23.467 0-42.667 17.493-42.667 40.96v3.413c0 23.467 19.2 42.667 42.667 42.667s42.667-19.2 42.667-42.667c0-23.467-19.2-44.373-42.667-44.373zM853.333 288h-682.667c-17.493 0-32 14.507-32 32s14.507 32 32 32h682.667c17.493 0 32-14.507 32-32s-14.507-32-32-32zM768 160h-512c-17.493 0-32 14.507-32 32s14.507 32 32 32h512c17.493 0 32-14.507 32-32s-14.507-32-32-32zM640 32h-256c-17.493 0-32 14.507-32 32s14.507 32 32 32h256c17.493 0 32-14.507 32-32s-14.507-32-32-32z" />
<glyph unicode="star" glyph-name="star" d="M460.292 823.006c19.127 45.992 84.284 45.992 103.411 0l88.832-213.577 230.575-18.485c49.651-3.981 69.786-65.943 31.957-98.353l-175.676-150.481 53.67-225.003c11.558-48.452-41.152-86.746-83.661-60.783l-197.406 120.572-197.402-120.572c-42.51-25.963-95.22 12.331-83.662 60.783l53.671 225.003-175.674 150.481c-37.83 32.41-17.697 94.372 31.956 98.353l230.575 18.485 88.832 213.577z" />
<glyph unicode="speaker-cancel" glyph-name="speaker-x-mark" d="M576 786.746c0 57.018-68.937 85.573-109.257 45.255l-191.998-192h-82.359c-48.697 0-98.901-28.349-113.483-81.282-9.721-35.289-14.903-72.422-14.903-110.719 0-38.293 5.183-75.426 14.903-110.716 14.582-52.932 64.786-81.284 113.483-81.284h82.359l191.998-192c40.32-40.316 109.257-11.763 109.257 45.257v677.49zM758.626 566.63c-12.497 12.497-32.755 12.497-45.252 0s-12.497-32.758 0-45.256l73.37-73.374-73.37-73.37c-12.497-12.497-12.497-32.759 0-45.257s32.755-12.497 45.252 0l73.374 73.374 73.374-73.374c12.497-12.497 32.755-12.497 45.252 0s12.497 32.759 0 45.257l-73.37 73.37 73.37 73.374c12.497 12.497 12.497 32.759 0 45.256s-32.755 12.497-45.252 0l-73.374-73.373-73.374 73.373z" />
<glyph unicode="speaker" glyph-name="speaker-wave" d="M576 786.746c0 57.018-68.937 85.573-109.257 45.255l-191.998-192h-82.359c-48.697 0-98.901-28.349-113.483-81.282-9.721-35.289-14.903-72.422-14.903-110.719 0-38.293 5.183-75.426 14.903-110.716 14.582-52.932 64.786-81.284 113.483-81.284h82.359l191.998-192c40.32-40.316 109.257-11.763 109.257 45.257v677.49zM792.905 742.161c12.497 12.497 32.755 12.497 45.252 0 162.462-162.458 162.462-425.856 0-588.313-12.497-12.497-32.755-12.497-45.252 0s-12.497 32.759 0 45.257c137.463 137.463 137.463 360.337 0 497.802-12.497 12.497-12.497 32.758 0 45.255zM679.778 629.020c12.497 12.497 32.759 12.497 45.257 0 99.972-99.975 99.972-262.065 0-362.038-12.497-12.497-32.759-12.497-45.257 0s-12.497 32.755 0 45.252c74.982 74.982 74.982 196.548 0 271.531-12.497 12.497-12.497 32.758 0 45.255z" />
<glyph unicode="sparkles" glyph-name="sparkles" d="M384 768c14.287 0 26.844-9.471 30.769-23.209l34.695-121.437c15.189-53.153 56.738-94.701 109.892-109.89l121.434-34.697c13.739-3.925 23.211-16.478 23.211-30.767s-9.472-26.842-23.211-30.767l-121.434-34.697c-53.154-15.189-94.703-56.738-109.892-109.892l-34.695-121.434c-3.925-13.739-16.481-23.211-30.769-23.211s-26.844 9.472-30.769 23.211l-34.697 121.434c-15.187 53.154-56.735 94.703-109.888 109.892l-121.437 34.697c-13.738 3.925-23.209 16.478-23.209 30.767s9.471 26.842 23.209 30.767l121.437 34.697c53.153 15.189 94.702 56.737 109.888 109.89l34.697 121.437c3.925 13.738 16.481 23.209 30.769 23.209zM768 896c14.686 0 27.482-9.993 31.044-24.239l11.046-44.18c10.031-40.128 41.361-71.46 81.489-81.492l44.181-11.045c14.246-3.561 24.239-16.361 24.239-31.045s-9.993-27.483-24.239-31.045l-44.181-11.045c-40.128-10.032-71.458-41.364-81.489-81.492l-11.046-44.18c-3.563-14.246-16.358-24.239-31.044-24.239s-27.482 9.993-31.044 24.239l-11.046 44.18c-10.031 40.128-41.361 71.46-81.489 81.492l-44.181 11.045c-14.246 3.561-24.239 16.361-24.239 31.045s9.993 27.483 24.239 31.045l44.181 11.045c40.128 10.032 71.458 41.364 81.489 81.492l11.046 44.18c3.563 14.246 16.358 24.239 31.044 24.239zM704 320c13.773 0 26.001-8.815 30.357-21.879l16.823-50.466c6.37-19.11 21.363-34.103 40.474-40.474l50.466-16.823c13.065-4.356 21.879-16.585 21.879-30.357s-8.815-26.001-21.879-30.357l-50.466-16.823c-19.11-6.37-34.103-21.363-40.474-40.474l-16.823-50.466c-4.356-13.065-16.585-21.879-30.357-21.879s-26.001 8.815-30.357 21.879l-16.823 50.466c-6.37 19.11-21.363 34.103-40.474 40.474l-50.466 16.823c-13.065 4.356-21.879 16.585-21.879 30.357s8.815 26.001 21.879 30.357l50.466 16.823c19.11 6.37 34.103 21.363 40.474 40.474l16.823 50.466c4.356 13.065 16.585 21.879 30.357 21.879z" />
<glyph unicode="shopping" glyph-name="shopping-cart" d="M96 864c-17.673 0-32-14.327-32-32s14.327-32 32-32h59.122c7.249 0 13.592-4.873 15.46-11.878l109.13-409.238c-68.863-17.86-119.712-80.435-119.712-154.884 0-17.673 14.327-32 32-32h672c17.673 0 32 14.327 32 32s-14.327 32-32 32h-634.537c13.179 37.286 48.739 64 90.537 64h478.647c12.237 0 23.403 6.98 28.766 17.984 48.435 99.392 90.701 202.345 126.302 308.362 2.833 8.435 2.027 17.668-2.227 25.484s-11.567 13.507-20.19 15.708c-205.73 52.54-421.278 80.462-643.298 80.462-15.267 0-30.505-0.132-45.71-0.395l-9.869 37.008c-9.339 35.020-41.055 59.387-77.299 59.387h-59.122zM160 96c0 35.345 28.654 64 64 64s64-28.655 64-64c0-35.345-28.654-64-64-64s-64 28.655-64 64zM704 96c0 35.345 28.655 64 64 64s64-28.655 64-64c0-35.345-28.655-64-64-64s-64 28.655-64 64z" />
<glyph unicode="shield" glyph-name="shield-svgrepo-com" d="M512 21.333c-48.981 0-145.835 58.112-218.88 142.507-103.68 119.723-165.12 285.568-165.12 497.493 0 0.005 0 0.010 0 0.016 0 17.862 10.976 33.161 26.552 39.519l0.285 0.103c139.691 55.893 250.88 111.488 333.483 166.528 6.653 4.494 14.854 7.174 23.68 7.174s17.027-2.68 23.832-7.271l-0.152 0.096c82.56-55.040 193.835-110.677 333.483-166.528 15.861-6.461 26.837-21.759 26.837-39.622 0-0.005 0-0.011 0-0.016v0.001c0-211.968-61.44-377.813-165.12-497.493-73.003-84.352-169.856-142.507-218.88-142.507z" />
<glyph unicode="scale" glyph-name="scale" d="M512 864c-17.673 0-32-14.327-32-32v-32.241c-88.248-1.332-175.177-8.16-260.458-20.163-43.786-6.162-87.137-13.688-130.007-22.534-16.076-3.317-27.035-18.26-25.368-34.59s15.42-28.75 31.834-28.75h81.821l-105.54-431.98c-3.466-14.187 3.111-28.915 15.985-35.806 40.475-21.666 86.72-33.937 135.735-33.937s95.261 12.271 135.735 33.937c12.874 6.891 19.45 21.619 15.985 35.806l-105.54 431.98h209.818v-566.649c-55.151-3.2-108.142-14.626-157.737-33.084-14.513-5.402-23.076-20.42-20.332-35.661s16.008-26.33 31.494-26.33h357.135c15.484 0 28.749 11.089 31.492 26.33s-5.82 30.259-20.331 35.661c-49.591 18.458-102.575 29.879-157.722 33.084v566.649h209.822l-105.54-431.98c-3.465-14.187 3.11-28.915 15.983-35.806 40.478-21.666 86.72-33.937 135.735-33.937s95.262 12.271 135.735 33.937c12.877 6.891 19.452 21.619 15.987 35.806l-105.54 431.98h81.818c16.418 0 30.17 12.42 31.838 28.75 1.664 16.33-9.293 31.273-25.37 34.59-42.871 8.845-86.221 16.371-130.005 22.534-85.282 12.002-172.215 18.831-260.463 20.163v32.241c0 17.673-14.327 32-32 32zM720.128 286.148l79.872 326.931 79.876-326.931h-159.748zM303.877 286.148h-159.75l79.875 326.931 79.875-326.931z" />
<glyph unicode="rook" glyph-name="chess-rook-svgrepo-com" d="M864 896h-112c-17.673 0-32-14.327-32-32v0-96h-96v96c0 17.673-14.327 32-32 32v0h-160c-17.673 0-32-14.327-32-32v0-96h-95.8v96c0 17.673-14.327 32-32 32v0h-112.2c-17.673 0-32-14.327-32-32v0-352l128-64c0-96.66-3.080-190-26.42-320h564.84c-23.34 130-26.42 224.56-26.42 320l128 64v352c0 17.673-14.327 32-32 32v0zM576 320h-128v128c0 35.346 28.654 64 64 64s64-28.654 64-64v0zM864 64h-704c-17.673 0-32-14.327-32-32v0-64c0-17.673 14.327-32 32-32v0h704c17.673 0 32 14.327 32 32v0 64c0 17.673-14.327 32-32 32v0z" />
<glyph unicode="ring" glyph-name="ring-f-svgrepo-com" d="M512 960c282.77 0 512-229.23 512-512s-229.23-512-512-512-512 229.23-512 512 229.23 512 512 512zM512 640c-106.039 0-192-85.961-192-192s85.961-192 192-192 192 85.961 192 192-85.961 192-192 192zM512 576c70.692 0 128-57.308 128-128s-57.308-128-128-128-128 57.308-128 128 57.308 128 128 128z" />
<glyph unicode="refresh" glyph-name="arrow-path" d="M202.887 530.82c45.741 170.709 221.209 272.016 391.92 226.275 56.358-15.102 105.075-44.294 143.471-82.76l81.199-81.198h-135.838c-17.677 0-32-14.327-32-32s14.323-32.002 32-32.002h213.018c8.486 0 16.627 3.375 22.626 9.376 6.003 6.002 9.374 14.143 9.374 22.63v213.013c0 17.673-14.327 32-32 32-17.677 0-32-14.327-32-32v-135.687l-81.079 81.079c-46.131 46.211-104.691 81.276-172.207 99.367-204.852 54.889-415.413-66.678-470.303-271.529-4.574-17.072 5.556-34.617 22.627-39.191s34.618 5.555 39.192 22.626zM860.271 387.806c-17.071 4.574-34.615-5.559-39.189-22.63-45.743-170.709-221.21-272.013-391.919-226.274-56.363 15.104-105.079 44.297-143.473 82.761l-81.147 81.199h135.8c17.673 0 32 14.327 32 32s-14.327 32-32 32h-213.019c-17.673 0-32-14.327-32-32v-213.018c0-17.673 14.327-32 32-32s32 14.327 32 32v135.727l81.070-81.122c46.131-46.217 104.684-81.271 172.204-99.366 204.849-54.886 415.414 66.679 470.3 271.531 4.574 17.071-5.555 34.615-22.626 39.194z" />
<glyph unicode="quill" glyph-name="quill" d="M0-64c128 384 463 1024 1024 1024-263-211-384-704-576-704s-192 0-192 0l-192-320h-64z" />
<glyph unicode="question-mark" glyph-name="question-mark-svgrepo-com" d="M792.276 789.41c-26.344 50.074-67.59 91.796-118.684 122.060-51.072 30.13-112.722 48.528-179.632 48.528-82.476 0.204-151-21.284-202.718-51.042-51.924-29.652-74.312-64.176-74.312-64.176-8.726-7.572-13.648-18.588-13.442-30.112 0.236-11.54 5.55-22.372 14.546-29.568l71.866-57.56c14.648-11.728 35.612-11.288 49.75 1.036 0 0 8.828 15.956 36.494 31.76 27.82 15.7 63.89 28.346 117.816 28.516 47.034 0.102 88.044-17.45 116.032-41.434 13.904-11.882 24.29-25.188 30.656-37.36 6.416-12.272 8.758-23 8.726-31.148-0.136-27.532-5.484-45.54-13.206-60.884-5.89-11.458-13.578-21.626-23.476-31.488-14.768-14.768-34.796-28.414-57.268-40.958-22.49-12.696-46.73-23.864-71.224-37.36-27.956-15.48-57.54-37.716-79.402-71.088-10.898-16.498-19.42-35.372-24.832-55.282-5.484-19.928-7.96-40.824-7.96-62.142 0-22.744 0-41.416 0-41.416 0-21.438 17.38-38.82 38.82-38.82h93.524c21.438 0 38.82 17.382 38.82 38.82 0 0 0 18.672 0 41.416 0 8.214 0.934 13.51 1.834 16.872 1.546 5.024 2.412 6.28 4.94 9.336 2.58 2.904 7.79 7.348 17.396 12.662 14.038 7.892 36.596 18.552 62.14 32.352 38.242 20.912 84.734 49.292 123.944 96.124 19.504 23.372 36.748 51.516 48.646 83.936 12.002 32.42 18.484 68.862 18.452 107.92-0.036 39.568-10.764 77.148-28.246 110.5zM457.618 147.12c-58.304 0-105.576-47.288-105.576-105.576 0-58.272 47.274-105.544 105.576-105.544 58.272 0 105.526 47.272 105.526 105.544 0 58.288-47.254 105.576-105.526 105.576z" />
<glyph unicode="question" glyph-name="question-mark-svgrepo-com" d="M792.276 789.41c-26.344 50.074-67.59 91.796-118.684 122.060-51.072 30.13-112.722 48.528-179.632 48.528-82.476 0.204-151-21.284-202.718-51.042-51.924-29.652-74.312-64.176-74.312-64.176-8.726-7.572-13.648-18.588-13.442-30.112 0.236-11.54 5.55-22.372 14.546-29.568l71.866-57.56c14.648-11.728 35.612-11.288 49.75 1.036 0 0 8.828 15.956 36.494 31.76 27.82 15.7 63.89 28.346 117.816 28.516 47.034 0.102 88.044-17.45 116.032-41.434 13.904-11.882 24.29-25.188 30.656-37.36 6.416-12.272 8.758-23 8.726-31.148-0.136-27.532-5.484-45.54-13.206-60.884-5.89-11.458-13.578-21.626-23.476-31.488-14.768-14.768-34.796-28.414-57.268-40.958-22.49-12.696-46.73-23.864-71.224-37.36-27.956-15.48-57.54-37.716-79.402-71.088-10.898-16.498-19.42-35.372-24.832-55.282-5.484-19.928-7.96-40.824-7.96-62.142 0-22.744 0-41.416 0-41.416 0-21.438 17.38-38.82 38.82-38.82h93.524c21.438 0 38.82 17.382 38.82 38.82 0 0 0 18.672 0 41.416 0 8.214 0.934 13.51 1.834 16.872 1.546 5.024 2.412 6.28 4.94 9.336 2.58 2.904 7.79 7.348 17.396 12.662 14.038 7.892 36.596 18.552 62.14 32.352 38.242 20.912 84.734 49.292 123.944 96.124 19.504 23.372 36.748 51.516 48.646 83.936 12.002 32.42 18.484 68.862 18.452 107.92-0.036 39.568-10.764 77.148-28.246 110.5zM457.618 147.12c-58.304 0-105.576-47.288-105.576-105.576 0-58.272 47.274-105.544 105.576-105.544 58.272 0 105.526 47.272 105.526 105.544 0 58.288-47.254 105.576-105.526 105.576z" />
<glyph unicode="plus" glyph-name="plus" d="M512 800c17.673 0 32-14.327 32-32v-288h288c17.673 0 32-14.327 32-32s-14.327-32-32-32h-288v-288c0-17.673-14.327-32-32-32s-32 14.327-32 32v288h-288c-17.673 0-32 14.327-32 32s14.327 32 32 32h288v288c0 17.673 14.327 32 32 32z" />
<glyph unicode="play" glyph-name="play" d="M192 718.803c0 60.848 65.237 99.421 118.554 70.097l492.399-270.82c55.262-30.391 55.262-109.798 0-140.194l-492.399-270.818c-53.316-29.325-118.554 9.25-118.554 70.097v541.638z" />
<glyph unicode="person" glyph-name="user" d="M319.998 704c0 106.039 85.961 192 192.002 192 106.035 0 192-85.961 192-192s-85.965-192-192-192c-106.040 0-192.002 85.961-192.002 192zM160.052 102.174c3.3 191.561 159.605 345.826 351.948 345.826 192.346 0 348.655-154.27 351.945-345.839 0.218-12.706-7.1-24.337-18.65-29.636-101.5-46.575-214.404-72.525-333.282-72.525-118.89 0-231.804 25.954-333.312 72.538-11.549 5.299-18.868 16.93-18.649 29.636z" />
<glyph unicode="penicl" glyph-name="pencil1" d="M927.198 863.196c-43.742 43.738-114.654 43.738-158.391 0l-49.374-49.372 158.391-158.392 49.374 49.372c43.738 43.739 43.738 114.653 0 158.392zM832.572 610.177l-158.396 158.392-518.434-518.436c-26.316-26.317-45.661-58.773-56.286-94.443l-34.124-114.556c-3.354-11.26-0.268-23.454 8.041-31.761 8.308-8.311 20.502-11.396 31.763-8.043l114.555 34.125c35.668 10.624 68.127 29.969 94.443 56.286l518.437 518.435z" />
<glyph unicode="pencil-paper" glyph-name="pencil-square" d="M927.198 863.196c-43.742 43.738-114.654 43.738-158.396 0l-49.37-49.372 158.391-158.392 49.374 49.371c43.738 43.739 43.738 114.653 0 158.392zM832.567 610.178l-158.391 158.392-358.435-358.436c-26.316-26.317-45.661-58.773-56.285-94.443l-34.124-114.556c-3.354-11.26-0.268-23.454 8.041-31.761 8.308-8.311 20.502-11.396 31.763-8.043l114.555 34.125c35.668 10.624 68.125 29.969 94.442 56.286l358.434 358.436zM224 736c-70.692 0-128-57.308-128-128v-448c0-70.69 57.308-128 128-128h448c70.694 0 128 57.31 128 128v224c0 17.673-14.327 32-32 32s-32-14.327-32-32v-224c0-35.345-28.655-64-64-64h-448c-35.346 0-64 28.655-64 64v448c0 35.346 28.654 64 64 64h224c17.673 0 32 14.327 32 32s-14.327 32-32 32h-224z" />
<glyph unicode="pause" glyph-name="pause" d="M288 736c0 17.673 14.327 32 32 32h64c17.673 0 32-14.327 32-32v-576c0-17.673-14.327-32-32-32h-64c-8.487 0-16.626 3.371-22.627 9.374-6.001 5.999-9.373 14.14-9.373 22.626v576zM608 736c0 17.673 14.327 32 32 32h64c8.486 0 16.627-3.372 22.626-9.373 6.003-6.001 9.374-14.141 9.374-22.627v-576c0-17.673-14.327-32-32-32h-64c-17.673 0-32 14.327-32 32v576z" />
<glyph unicode="paper-double" glyph-name="document-duplicate" d="M320 816c0 44.183 35.817 80 80 80h16c88.367 0 160-71.634 160-160v-80c0-44.183 35.819-80 80-80h80c88.367 0 160-71.633 160-160v-144c0-44.181-35.819-80-80-80h-416c-44.183 0-80 35.819-80 80v544zM640 736c0 56.023-20.565 107.244-54.562 146.522 145.020-37.882 259.2-152.063 297.084-297.084-39.279 33.996-90.496 54.563-146.522 54.563h-80c-8.836 0-16 7.163-16 16v80zM208 704h48v-432c0-79.531 64.471-144 144-144h304v-48c0-44.181-35.819-80-80-80h-416c-44.183 0-80 35.819-80 80v544c0 44.183 35.817 80 80 80z" />
<glyph unicode="paper" glyph-name="document" d="M240 896c-44.183 0-80-35.817-80-80v-736c0-44.181 35.817-80 80-80h544c44.181 0 80 35.819 80 80v336c0 88.367-71.633 160-160 160h-80c-44.181 0-80 35.817-80 80v80c0 88.366-71.633 160-160 160h-144zM553.438 882.522c33.997-39.278 54.562-90.498 54.562-146.522v-80c0-8.837 7.164-16 16-16h80c56.026 0 107.243-20.567 146.522-54.563-37.884 145.021-152.064 259.202-297.084 297.084z" />
<glyph unicode="no" glyph-name="cross" d="M1014.662 137.34c-0.004 0.004-0.008 0.008-0.012 0.010l-310.644 310.65 310.644 310.65c0.004 0.004 0.008 0.006 0.012 0.010 3.344 3.346 5.762 7.254 7.312 11.416 4.246 11.376 1.824 24.682-7.324 33.83l-146.746 146.746c-9.148 9.146-22.45 11.566-33.828 7.32-4.16-1.55-8.070-3.968-11.418-7.31 0-0.004-0.004-0.006-0.008-0.010l-310.648-310.652-310.648 310.65c-0.004 0.004-0.006 0.006-0.010 0.010-3.346 3.342-7.254 5.76-11.414 7.31-11.38 4.248-24.682 1.826-33.83-7.32l-146.748-146.748c-9.148-9.148-11.568-22.452-7.322-33.828 1.552-4.16 3.97-8.072 7.312-11.416 0.004-0.002 0.006-0.006 0.010-0.010l310.65-310.648-310.65-310.652c-0.002-0.004-0.006-0.006-0.008-0.010-3.342-3.346-5.76-7.254-7.314-11.414-4.248-11.376-1.826-24.682 7.322-33.83l146.748-146.746c9.15-9.148 22.452-11.568 33.83-7.322 4.16 1.552 8.070 3.97 11.416 7.312 0.002 0.004 0.006 0.006 0.010 0.010l310.648 310.65 310.648-310.65c0.004-0.002 0.008-0.006 0.012-0.008 3.348-3.344 7.254-5.762 11.414-7.314 11.378-4.246 24.684-1.826 33.828 7.322l146.746 146.748c9.148 9.148 11.57 22.454 7.324 33.83-1.552 4.16-3.97 8.068-7.314 11.414z" />
<glyph unicode="moon" glyph-name="moon" d="M406.545 886.71c9.173-9.173 11.901-22.978 6.904-34.95-18.961-45.441-29.449-95.335-29.449-147.76 0-212.079 171.921-384 384-384 52.425 0 102.319 10.487 147.759 29.449 11.972 4.996 25.779 2.27 34.953-6.903s11.9-22.98 6.903-34.953c-67.511-161.788-227.234-275.593-413.615-275.593-247.424 0-448 200.576-448 448 0 186.38 113.807 346.105 275.594 413.615 11.973 4.996 25.777 2.269 34.95-6.905z" />
<glyph unicode="locked" glyph-name="lock-closed" d="M512 896c123.712 0 224-100.288 224-224v-128c70.694 0 128-57.306 128-128v-288c0-70.694-57.306-128-128-128h-448c-70.692 0-128 57.306-128 128v288c0 70.694 57.308 128 128 128v128c0 123.712 100.288 224 224 224zM672 544v128c0 88.366-71.633 160-160 160s-160-71.634-160-160v-128h320z" />
<glyph unicode="list" glyph-name="list-bullet" d="M112 672c0 26.51 21.49 48 48 48s48-21.49 48-48c0-26.51-21.49-48-48-48s-48 21.49-48 48zM320 672c0 17.673 14.327 32 32 32h512c17.673 0 32-14.327 32-32s-14.327-32-32-32h-512c-17.673 0-32 14.327-32 32zM112 448c0 26.509 21.49 48 48 48s48-21.491 48-48c0-26.509-21.49-48-48-48s-48 21.491-48 48zM320 448c0 17.673 14.327 32 32 32h512c17.673 0 32-14.327 32-32s-14.327-32-32-32h-512c-17.673 0-32 14.327-32 32zM112 224c0 26.509 21.49 48 48 48s48-21.491 48-48c0-26.509-21.49-48-48-48s-48 21.491-48 48zM320 224c0 17.673 14.327 32 32 32h512c17.673 0 32-14.327 32-32s-14.327-32-32-32h-512c-17.673 0-32 14.327-32 32z" />
<glyph unicode="letter-open" glyph-name="envelope-open" d="M832-0.009c70.694 0 128 57.306 128 128v348.749l-293.495-171.601 148.668-80.051c15.561-8.38 21.38-27.785 13.005-43.345-8.38-15.561-27.789-21.385-43.349-13.005l-242.483 130.569c-18.944 10.202-41.745 10.202-60.685 0l-242.488-130.569c-15.561-8.38-34.967-2.556-43.346 13.005s-2.557 34.965 13.004 43.345l148.666 80.051-293.495 171.601v-348.749c0-70.694 57.308-128 128-128h640zM64 550.875v31.776c0 47.089 25.855 90.375 67.315 112.7l320 172.308c37.884 20.399 83.486 20.399 121.37 0l320-172.308c41.459-22.325 67.315-65.612 67.315-112.701v-31.775l-359.501-210.195-27.814 14.976c-37.884 20.399-83.486 20.399-121.37 0l-27.812-14.976-359.503 210.195z" />
<glyph unicode="letter" glyph-name="envelope" d="M64 590.118v-366.118c0-70.694 57.308-128 128-128h640c70.694 0 128 57.306 128 128v366.118l-380.915-234.411c-41.139-25.314-93.030-25.314-134.17 0l-380.915 234.411zM960 665.266v6.734c0 70.692-57.306 128-128 128h-640c-70.692 0-128-57.308-128-128v-6.734l414.46-255.052c20.57-12.659 46.511-12.659 67.081 0l414.46 255.052z" />
<glyph unicode="learning" glyph-name="academic-cap" d="M499.191 840.303c8.166 3.569 17.455 3.569 25.621 0 158.673-69.326 309.052-154.073 449.246-252.342 10.146-7.112 15.275-19.441 13.167-31.65s-11.076-22.104-23.019-25.401c-29.222-8.068-58.193-16.755-86.903-26.014-116.527-37.581-228.693-84.864-335.556-140.902l-0.141-0.073c-4.847-2.543-9.681-5.103-14.502-7.68-9.425-5.035-20.74-5.035-30.161 0-4.868 2.603-9.749 5.188-14.643 7.753-52.838 27.708-106.979 53.278-162.3 76.591v9.545c0 5.606 2.877 10.577 7.327 13.274 64.218 38.908 130.461 74.804 198.527 107.5 15.932 7.652 22.643 26.769 14.993 42.7-7.654 15.931-26.773 22.642-42.701 14.99-69.943-33.595-138.003-70.479-203.981-110.448-19.344-11.721-32.349-30.903-36.626-52.39-36.477 14.033-73.433 27.102-110.839 39.164-28.707 9.259-57.679 17.929-86.901 25.993-11.943 3.297-20.91 13.192-23.019 25.401s3.020 24.538 13.166 31.65c140.196 98.269 290.575 183.016 449.245 252.342zM557.265 299.797c104.055 55.599 213.385 102.601 327.036 140.066 5.73-60.365 9.387-121.331 10.901-182.822 0.324-13.193-7.484-25.233-19.661-30.319-121.651-50.786-237.359-112.981-345.796-185.242-10.743-7.164-24.742-7.164-35.49 0-108.434 72.26-224.144 134.455-345.792 185.242-12.179 5.086-19.987 17.126-19.662 30.319 1.515 61.495 5.172 122.466 10.901 182.835 39.296-12.954 78.075-27.046 116.298-42.24v-54.204c-19.13-11.068-32-31.748-32-55.437 0-21.133 10.243-39.876 26.036-51.529-3.82-16.243-9.472-32.132-16.958-47.351 19.315-9.118 38.465-18.526 57.443-28.224 10.809 21.986 18.646 45.060 23.511 68.621 22.372 9.971 37.967 32.405 37.967 58.483 0 23.689-12.87 44.369-32 55.437v27.511c49.98-21.837 98.938-45.585 146.782-71.147 28.271-15.108 62.212-15.108 90.483 0zM190.388 129.604c17.883 17.882 32.119 38.025 42.69 59.511 19.315-9.118 38.465-18.526 57.443-28.224-13.591-27.639-31.892-53.555-54.879-76.544-12.497-12.497-32.758-12.497-45.255 0s-12.497 32.759 0 45.257z" />
<glyph unicode="leaf" glyph-name="leaf-ui-2-svgrepo-com" d="M140.459 76.373c-7.68 7.714-12.428 18.353-12.428 30.101s4.748 22.387 12.43 30.103l120.702 120.659c-20.755 42.921-32.884 93.343-32.884 146.598 0 101.481 44.043 192.674 114.058 255.509l0.32 0.282c215.211 215.040 549.077 168.107 549.077 168.107 2.72-24.712 4.272-53.368 4.272-82.387 0-45.155-3.757-89.433-10.976-132.538l0.645 4.664h-204.117l160.043-160.043c-28.648-69.553-68.507-128.972-117.933-178.904l0.045 0.046c-63.124-70.338-154.326-114.384-255.816-114.384-53.229 0-103.628 12.116-148.589 33.74l2.058-0.892-120.832-120.661c-7.708-7.642-18.321-12.365-30.037-12.365s-22.33 4.722-30.040 12.368l0.003-0.003z" />
<glyph unicode="lantern" glyph-name="lantern-flame-svgrepo-com1" d="M867.136 572.544l-309.792 219.168c14.848 12.672 24.256 31.488 24.256 52.512 0 38.112-30.912 69.024-69.024 69.024s-69.024-30.912-69.024-69.024c0-20.576 9.024-39.072 23.328-51.712l-309.664-220h709.888zM676.64 69.28l130.56 464.768h-590.016l130.56-464.768h328.896zM533.696 482.048c104.576-82.944-16.288-135.904 31.84-196.288 19.84-24.896 59.936-3.36 69.6 44.704 25.6-92.48-23.744-199.424-121.28-199.424-42.080 1.28-77.92 34.048-100.288 83.968-33.248 126.272 178.048 171.744 120.128 267.040zM204.64 37.088h602.56v-56.8h-602.56v56.8z" />
<glyph unicode="knife" glyph-name="knife-svgrepo-com" d="M467.264 692.512l-1.216-1.12c-60.832 104.672-138.208 195.872-260.768 252.16-42.976 19.744-75.584-12.96-92.832-51.328-67.68-150.784 169.76 3.104 293.536-255.072l-0.48-0.448c-9.152-65.408-98.816-131.744-179.648-134.304 155.264-370.176 512.928-637.312 763.296-476.544-329.088 112.608-386.464 421.792-521.856 666.624z" />
<glyph unicode="home" glyph-name="home3" d="M1024 352l-192 192v288h-128v-160l-192 192-512-512v-32h128v-320h320v192h128v-192h320v320h128z" />
<glyph unicode="goal" glyph-name="target" d="M1024 512h-100.924c-27.64 178.24-168.836 319.436-347.076 347.076v100.924h-128v-100.924c-178.24-27.64-319.436-168.836-347.076-347.076h-100.924v-128h100.924c27.64-178.24 168.836-319.436 347.076-347.076v-100.924h128v100.924c178.24 27.64 319.436 168.836 347.076 347.076h100.924v128zM792.822 512h-99.762c-19.284 54.55-62.51 97.778-117.060 117.060v99.762c107.514-24.49 192.332-109.31 216.822-216.822zM512 384c-35.346 0-64 28.654-64 64s28.654 64 64 64c35.346 0 64-28.654 64-64s-28.654-64-64-64zM448 728.822v-99.762c-54.55-19.282-97.778-62.51-117.060-117.060h-99.762c24.49 107.512 109.31 192.332 216.822 216.822zM231.178 384h99.762c19.282-54.55 62.51-97.778 117.060-117.060v-99.762c-107.512 24.49-192.332 109.308-216.822 216.822zM576 167.178v99.762c54.55 19.284 97.778 62.51 117.060 117.060h99.762c-24.49-107.514-109.308-192.332-216.822-216.822z" />
<glyph unicode="github" glyph-name="github" d="M512.008 947.358c-282.738 0-512.008-229.218-512.008-511.998 0-226.214 146.704-418.132 350.136-485.836 25.586-4.738 34.992 11.11 34.992 24.632 0 12.204-0.48 52.542-0.696 95.324-142.448-30.976-172.504 60.41-172.504 60.41-23.282 59.176-56.848 74.916-56.848 74.916-46.452 31.778 3.51 31.124 3.51 31.124 51.4-3.61 78.476-52.766 78.476-52.766 45.672-78.27 119.776-55.64 149.004-42.558 4.588 33.086 17.852 55.68 32.506 68.464-113.73 12.942-233.276 56.85-233.276 253.032 0 55.898 20.004 101.574 52.76 137.428-5.316 12.9-22.854 64.972 4.952 135.5 0 0 43.006 13.752 140.84-52.49 40.836 11.348 84.636 17.036 128.154 17.234 43.502-0.198 87.336-5.886 128.256-17.234 97.734 66.244 140.656 52.49 140.656 52.49 27.872-70.528 10.35-122.6 5.036-135.5 32.82-35.856 52.694-81.532 52.694-137.428 0-196.654-119.778-239.95-233.79-252.624 18.364-15.89 34.724-47.046 34.724-94.812 0-68.508-0.596-123.644-0.596-140.508 0-13.628 9.222-29.594 35.172-24.566 203.322 67.776 349.842 259.626 349.842 485.768 0 282.78-229.234 511.998-511.992 511.998z" />
<glyph unicode="gears" glyph-name="cogs" d="M363.722 237.948l41.298 57.816-45.254 45.256-57.818-41.296c-10.722 5.994-22.204 10.774-34.266 14.192l-11.682 70.084h-64l-11.68-70.086c-12.062-3.418-23.544-8.198-34.266-14.192l-57.818 41.298-45.256-45.256 41.298-57.816c-5.994-10.72-10.774-22.206-14.192-34.266l-70.086-11.682v-64l70.086-11.682c3.418-12.060 8.198-23.544 14.192-34.266l-41.298-57.816 45.254-45.256 57.818 41.296c10.722-5.994 22.204-10.774 34.266-14.192l11.682-70.084h64l11.68 70.086c12.062 3.418 23.544 8.198 34.266 14.192l57.818-41.296 45.254 45.256-41.298 57.816c5.994 10.72 10.774 22.206 14.192 34.266l70.088 11.68v64l-70.086 11.682c-3.418 12.060-8.198 23.544-14.192 34.266zM224 96c-35.348 0-64 28.654-64 64s28.652 64 64 64 64-28.654 64-64-28.652-64-64-64zM1024 576v64l-67.382 12.25c-1.242 8.046-2.832 15.978-4.724 23.79l57.558 37.1-24.492 59.128-66.944-14.468c-4.214 6.91-8.726 13.62-13.492 20.13l39.006 56.342-45.256 45.254-56.342-39.006c-6.512 4.766-13.22 9.276-20.13 13.494l14.468 66.944-59.128 24.494-37.1-57.558c-7.812 1.892-15.744 3.482-23.79 4.724l-12.252 67.382h-64l-12.252-67.382c-8.046-1.242-15.976-2.832-23.79-4.724l-37.098 57.558-59.128-24.492 14.468-66.944c-6.91-4.216-13.62-8.728-20.13-13.494l-56.342 39.006-45.254-45.254 39.006-56.342c-4.766-6.51-9.278-13.22-13.494-20.13l-66.944 14.468-24.492-59.128 57.558-37.1c-1.892-7.812-3.482-15.742-4.724-23.79l-67.384-12.252v-64l67.382-12.25c1.242-8.046 2.832-15.978 4.724-23.79l-57.558-37.1 24.492-59.128 66.944 14.468c4.216-6.91 8.728-13.618 13.494-20.13l-39.006-56.342 45.254-45.256 56.342 39.006c6.51-4.766 13.22-9.276 20.13-13.492l-14.468-66.944 59.128-24.492 37.102 57.558c7.81-1.892 15.742-3.482 23.788-4.724l12.252-67.384h64l12.252 67.382c8.044 1.242 15.976 2.832 23.79 4.724l37.1-57.558 59.128 24.492-14.468 66.944c6.91 4.216 13.62 8.726 20.13 13.492l56.342-39.006 45.256 45.256-39.006 56.342c4.766 6.512 9.276 13.22 13.492 20.13l66.944-14.468 24.492 59.13-57.558 37.1c1.892 7.812 3.482 15.742 4.724 23.79l67.382 12.25zM672 468.8c-76.878 0-139.2 62.322-139.2 139.2s62.32 139.2 139.2 139.2 139.2-62.322 139.2-139.2c0-76.878-62.32-139.2-139.2-139.2z" />
<glyph unicode="forwards" glyph-name="forward" d="M215.691 658.758c-53.332 30.476-119.691-8.034-119.691-69.46v-346.576c0-61.423 66.359-99.934 119.691-69.457l296.309 169.318v-99.861c0-61.423 66.359-99.934 119.693-69.457l303.253 173.286c53.743 30.711 53.743 108.207 0 138.918l-303.253 173.288c-53.333 30.476-119.693-8.034-119.693-69.46v-99.86l-296.309 169.32z" />
<glyph unicode="flame" glyph-name="fire1" d="M321.008-64c-68.246 142.008-31.902 223.378 20.55 300.044 57.44 83.956 72.244 167.066 72.244 167.066s45.154-58.7 27.092-150.508c79.772 88.8 94.824 230.28 82.782 284.464 180.314-126.012 257.376-398.856 153.522-601.066 552.372 312.532 137.398 780.172 65.154 832.85 24.082-52.676 28.648-141.85-20-185.126-82.352 312.276-285.972 376.276-285.972 376.276 24.082-161.044-87.296-337.144-194.696-468.73-3.774 64.216-7.782 108.528-41.55 169.98-7.58-116.656-96.732-211.748-120.874-328.628-32.702-158.286 24.496-274.18 241.748-396.622z" />
<glyph unicode="fire" glyph-name="fire" d="M553.101 862.463c-5.193 6.967-13.001 11.522-21.623 12.616-8.619 1.094-17.318-1.365-24.090-6.814-79.791-64.206-135.445-157.353-150.984-263.534-28.014 20.308-52.618 45.050-72.773 73.198-5.545 7.743-14.251 12.614-23.75 13.289s-18.807-2.917-25.39-9.799c-65.937-68.924-106.49-162.468-106.49-265.414 0-212.079 171.923-384 384-384 212.079 0 384 171.921 384 384 0 156.198-93.257 290.546-226.995 350.532-47.326 23.104-86.404 56.372-115.904 95.926zM672 351.987c0-88.367-71.633-160-160-160s-160 71.633-160 160c0 17.463 2.799 34.278 7.971 50.010 26.815-19.823 57.637-34.534 91.028-42.697 9.212 59.767 39.095 112.713 82.116 151.305 78.387-10.334 138.884-77.41 138.884-158.618z" />
<glyph unicode="fire" glyph-name="fire1" d="M321.008-64c-68.246 142.008-31.902 223.378 20.55 300.044 57.44 83.956 72.244 167.066 72.244 167.066s45.154-58.7 27.092-150.508c79.772 88.8 94.824 230.28 82.782 284.464 180.314-126.012 257.376-398.856 153.522-601.066 552.372 312.532 137.398 780.172 65.154 832.85 24.082-52.676 28.648-141.85-20-185.126-82.352 312.276-285.972 376.276-285.972 376.276 24.082-161.044-87.296-337.144-194.696-468.73-3.774 64.216-7.782 108.528-41.55 169.98-7.58-116.656-96.732-211.748-120.874-328.628-32.702-158.286 24.496-274.18 241.748-396.622z" />
<glyph unicode="feather" glyph-name="quill" d="M0-64c128 384 463 1024 1024 1024-263-211-384-704-576-704s-192 0-192 0l-192-320h-64z" />
</font>
</defs>
</svg>
